<svg xmlns="http://www.w3.org/2000/svg" viewBox="0 0 400 300" width="406" height="306" class="illustration styles_illustrationTablet__1DWOa"><g id="_347_real_estate_agent_flatline" data-name="#347_real_estate_agent_flatline"><ellipse cx="201.65" cy="265.01" rx="78.84" ry="6.69" fill="#d1d3d4"></ellipse><rect x="154.53" y="101.17" width="9.92" height="163.85" fill="#fff"></rect><path d="M164.45,265.47h-9.92a.46.46,0,0,1-.46-.46V101.17a.46.46,0,0,1,.46-.46h9.92a.45.45,0,0,1,.45.46V265A.45.45,0,0,1,164.45,265.47Zm-9.46-.91h9V101.62h-9Z" fill="#231f20"></path><rect x="154.53" y="144.36" width="9.92" height="27.12" fill="#231f20"></rect><path d="M164.45,171.92h-9.92a.44.44,0,0,1-.44-.44V144.36a.44.44,0,0,1,.44-.44h9.92a.44.44,0,0,1,.44.44v27.12A.44.44,0,0,1,164.45,171.92ZM155,171h9V144.8h-9Z" fill="#231f20"></path><path d="M258.54,72.41a16.46,16.46,0,0,0,2-6.65,14.45,14.45,0,0,0-1-5.72c-.65-1.1-1.89-1.72-2.67-2.72-1.51-2-1-4.73-.52-7.15,1.27-6.93-5.58-14.42-11.72-16.86a14.65,14.65,0,0,0-8.72-.75A9.64,9.64,0,0,0,232,34c-1.07.78-1.61,1.95-2.77,2.51-1,.46-1.91.5-2.89.92a4.72,4.72,0,0,0-1.24.8c-2.62,2.35-5.72,8.42-4.59,12,.41,1.26.87,2.78,0,3.79a3.14,3.14,0,0,1-1.49.85c-3.38,1-9,1.59-6.46,6.79.68,1.36,1.71,2.7,1.57,4.22-.25,2.68-3.68,3.6-5.48,5.61-2.73,3-1.05,8.15,2.07,10.8,4.92,4.16,12,4.31,18.45,3.88C236,85.7,243,84.78,249,81.6A23.19,23.19,0,0,0,258.54,72.41Z" fill="#fff"></path><path d="M224.85,86.78c-5.17,0-10.43-.82-14.37-4.16a10.26,10.26,0,0,1-3.58-6.85,6.08,6.08,0,0,1,1.47-4.6,13.11,13.11,0,0,1,2.43-1.94c1.43-1,2.79-1.9,2.94-3.4a5.56,5.56,0,0,0-1-3c-.18-.31-.35-.63-.5-.94A4.42,4.42,0,0,1,211.8,58c.85-1.88,3.44-2.55,5.72-3.15.5-.13,1-.25,1.43-.39a2.6,2.6,0,0,0,1.27-.7c.65-.78.34-2-.1-3.36-1.23-3.84,2-10,4.71-12.45A5,5,0,0,1,226.2,37a9,9,0,0,1,1.45-.46,7.13,7.13,0,0,0,1.42-.46,4.76,4.76,0,0,0,1.44-1.26,8.08,8.08,0,0,1,1.26-1.21,10,10,0,0,1,4.07-1.54,15.13,15.13,0,0,1,9,.78c6.7,2.66,13.27,10.44,12,17.36l0,.11c-.42,2.3-.9,4.92.46,6.68a8.11,8.11,0,0,0,1.15,1.11A7,7,0,0,1,260,59.8c.76,1.28,1.13,4.7,1,6a16.89,16.89,0,0,1-2.05,6.84h0A23.4,23.4,0,0,1,249.22,82c-6.26,3.31-13.61,4.19-20,4.62C227.82,86.71,226.34,86.78,224.85,86.78Zm14.26-54.11A14.82,14.82,0,0,0,236,33a9.06,9.06,0,0,0-3.72,1.38,6.66,6.66,0,0,0-1.11,1.08,5.45,5.45,0,0,1-1.74,1.47,7.42,7.42,0,0,1-1.59.53,8.61,8.61,0,0,0-1.31.4,4.45,4.45,0,0,0-1.12.72c-2.48,2.23-5.52,8.17-4.45,11.49.4,1.26,1,3-.07,4.22a3.53,3.53,0,0,1-1.71,1c-.45.14-1,.26-1.46.4-2.08.54-4.45,1.16-5.12,2.64a3.61,3.61,0,0,0,.4,3.1c.15.3.32.6.49.9a6.33,6.33,0,0,1,1.13,3.58c-.19,1.93-1.79,3-3.34,4.07a12.73,12.73,0,0,0-2.26,1.79,5.17,5.17,0,0,0-1.24,3.93,9.46,9.46,0,0,0,3.27,6.22c4.81,4.08,11.86,4.19,18.12,3.77s13.48-1.28,19.59-4.51a22.5,22.5,0,0,0,9.35-9,16,16,0,0,0,1.94-6.47,14.38,14.38,0,0,0-.92-5.46,6,6,0,0,0-1.35-1.42,8.4,8.4,0,0,1-1.28-1.25c-1.62-2.09-1.09-4.92-.63-7.41l0-.11c1.25-6.81-5.82-14.11-11.44-16.34A14.44,14.44,0,0,0,239.11,32.67Zm19.43,39.74h0Z" fill="#231f20"></path><path d="M214.78,263.3s-3.46,4.37-2.58,5.78,17.27-1.59,19.38-3.09,8.24-12.07,8.35-12.43-5.07-6-5.07-6Z" fill="#231f20"></path><path d="M214.07,269.89a7.48,7.48,0,0,1-1.39-.1,1.25,1.25,0,0,1-.86-.47c-1-1.6,2-5.52,2.62-6.29a.27.27,0,0,1,.07-.08l20.08-15.76a.44.44,0,0,1,.6,0c5.35,5.85,5.25,6.17,5.16,6.45-.14.5-6.34,11.13-8.51,12.67C230.09,267.59,218.81,269.89,214.07,269.89Zm1-6.28c-1.32,1.68-3,4.47-2.53,5.24,1.15.94,16.6-1.68,18.76-3.21,1.84-1.31,7.39-10.66,8.12-12.1-.4-.65-2.56-3.12-4.64-5.41Z" fill="#231f20"></path><path d="M231.72,262.25s-3.88,6.09-2.65,7.12,14.3-1,15.24-1.64,5.53-11,5.53-11l.16,5.49,2.47-1.51s-2.15-12.85-3.08-13.66S231.72,262.25,231.72,262.25Z" fill="#231f20"></path><path d="M231,270.09a4.19,4.19,0,0,1-2.25-.38c-1.37-1.16,1.34-5.77,2.57-7.7a.27.27,0,0,1,.07-.08c17-16.31,17.91-15.54,18.25-15.25,1,.84,2.72,10.87,3.23,13.92a.45.45,0,0,1-.2.45l-2.47,1.5a.43.43,0,0,1-.44,0,.46.46,0,0,1-.23-.38l-.11-3.56c-1.5,3.34-4.1,8.93-4.89,9.46C244,268.46,235.33,270.09,231,270.09Zm1-7.56c-1.94,3.05-3.2,6.09-2.71,6.51,1,.74,13.49-.93,14.72-1.68.55-.44,3.16-5.86,5.36-10.85a.45.45,0,0,1,.49-.26.46.46,0,0,1,.36.42l.14,4.74,1.56-1c-1-5.75-2.23-11.9-2.81-13C247.62,248.09,239.34,255.56,232.06,262.53Z" fill="#231f20"></path><path d="M221.71,244l1.08,6.81s-4.54,8.36-8,12.54c0,0,6-.84,8.72-2.15s11.36-13.62,11.36-13.62l-3.47-9.43Z" fill="#fff"></path><path d="M214.78,263.76a.44.44,0,0,1-.39-.24.44.44,0,0,1,0-.51c3.16-3.81,7.28-11.24,7.88-12.34L221.26,244a.45.45,0,0,1,.22-.46l9.67-5.85a.42.42,0,0,1,.39,0,.44.44,0,0,1,.28.27l3.47,9.43a.48.48,0,0,1,0,.42c-.36.51-8.72,12.42-11.54,13.77s-8.61,2.16-8.85,2.19Zm7.43-19.58,1,6.51a.44.44,0,0,1-.05.28,110.85,110.85,0,0,1-7.32,11.7,35.21,35.21,0,0,0,7.44-1.93c2.12-1,8.56-9.74,11-13.27l-3.2-8.7Z" fill="#231f20"></path><path d="M239.63,242.89a37.39,37.39,0,0,1-1.83,6.87c-1.33,3.5-6.08,12.49-6.08,12.49l11.5,1s4.78-8,5.31-10.38,1.37-10.26,1.37-10.26Z" fill="#fff"></path><path d="M243.22,263.67h0l-11.5-1a.44.44,0,0,1-.36-.24.47.47,0,0,1,0-.43c0-.09,4.75-9,6.05-12.44a37.23,37.23,0,0,0,1.81-6.77.45.45,0,0,1,.43-.39l10.27-.3a.55.55,0,0,1,.35.14.48.48,0,0,1,.12.36c0,.33-.85,8-1.38,10.31s-5.16,10.18-5.36,10.51A.44.44,0,0,1,243.22,263.67Zm-10.77-1.82,10.52.89c.8-1.36,4.66-8,5.11-10s1.11-7.89,1.3-9.68l-9.36.28a37.62,37.62,0,0,1-1.79,6.58C237.09,252.92,233.54,259.75,232.45,261.85Z" fill="#231f20"></path><path d="M254.55,136.67a36.41,36.41,0,0,1,6.65,23.75c-.78,11.65-4,61.41-8.89,84.47L238.74,246l-6.5-78.56,1.15-29.58Z" fill="#231f20"></path><path d="M238.74,246.45a.43.43,0,0,1-.29-.1.44.44,0,0,1-.15-.3l-6.5-78.56L233,137.85a.45.45,0,0,1,.42-.42l21.15-1.2a.44.44,0,0,1,.37.16,37.2,37.2,0,0,1,6.75,24.06l-.09,1.46c-2.7,40.37-5.66,68.32-8.81,83.07a.45.45,0,0,1-.4.35l-13.57,1.12Zm-4.92-108.16-1.14,29.18,6.46,78.07,12.8-1.06c3.12-14.79,6.06-42.59,8.73-82.63l.09-1.46a36.54,36.54,0,0,0-6.42-23.27Z" fill="#231f20"></path><path d="M238.19,137.17l-23.25,1.3s-16.16,48.15-16.16,56.75,19.71,54.46,19.71,54.46l16.12-8.24L220.1,199.52l21.32-37.27Z" fill="#231f20"></path><path d="M218.49,250.12l-.15,0a.44.44,0,0,1-.26-.24c-.8-1.88-19.74-46.05-19.74-54.64s15.52-54.92,16.19-56.89a.43.43,0,0,1,.39-.3l23.25-1.3a.44.44,0,0,1,.46.38l3.23,25.08a.45.45,0,0,1-.06.28l-21.22,37.09L235,241.3a.44.44,0,0,1-.22.53l-16.12,8.25A.48.48,0,0,1,218.49,250.12ZM215.27,138.9c-1.33,4-16.05,48.23-16.05,56.32s17.48,49.15,19.49,53.86l15.36-7.86-14.39-41.56a.42.42,0,0,1,0-.36L241,162.16l-3.15-24.53Z" fill="#231f20"></path><path d="M218,97.67s-39,12.55-44.25,7.92-7.25-43.87-7.25-43.87l13.43-3.47s6.38,25.91,7.71,26.74c1.17.73,17.49-5.66,33.77-9.33" fill="#231f20"></path><path d="M178.36,107c-2.31,0-4.06-.33-5-1.1-5.37-4.7-7.32-42.57-7.4-44.18a.44.44,0,0,1,.33-.45l13.43-3.48a.44.44,0,0,1,.54.32c2.4,9.74,6.56,25.53,7.54,26.49.57.14,5-1.23,9.61-2.69,6.37-2,15.1-4.75,23.8-6.71a.44.44,0,0,1,.53.33.45.45,0,0,1-.34.53c-8.66,2-17.37,4.69-23.73,6.69-7.69,2.42-9.72,3-10.37,2.58-1.33-.84-6.17-20-7.79-26.57l-12.65,3.27c.22,4,2.26,39,7.08,43.2,4.19,3.66,33-4.54,43.82-8a.45.45,0,0,1,.56.29.44.44,0,0,1-.29.55C216.74,98.52,190.19,107,178.36,107Z" fill="#231f20"></path><path d="M231.26,74.31S221.52,82.93,220,89.62,218,138.3,218,138.3l29.64,3s-2.27-46.48,1-54.42,4.39-11.78,4.39-11.78Z" fill="#00ACCF"></path><path d="M232.81,67.25l-1,9.87s.48,5.61,6.65,4.49a12.44,12.44,0,0,0,8.64-6.33,8.53,8.53,0,0,0,.14-2.53l.31-5.79c.16-2.9.56-5.91.48-8.82-.11-3.49,1.16-7-2.85-7.68-1.84-.3-7.77-1.84-7.65-4.65a7.81,7.81,0,0,0,1.81,5.34l-3.44-2.28a12.46,12.46,0,0,1-3-2.48,4.27,4.27,0,0,1-1-3.63c-5.44,5.42-4.6,12.26-4.64,19.32C227.24,65.21,229.45,67.72,232.81,67.25Z" fill="#fff"></path><path d="M236.93,82.22a5.48,5.48,0,0,1-3.41-1.06,6.14,6.14,0,0,1-2.15-4l.93-9.41a5,5,0,0,1-3.63-1.21,5.81,5.81,0,0,1-1.87-4.47c0-.86,0-1.73,0-2.59-.06-6.25-.12-12.16,4.79-17a.45.45,0,0,1,.54-.07.46.46,0,0,1,.22.51,3.87,3.87,0,0,0,.91,3.24,12.47,12.47,0,0,0,2.91,2.38l1.68,1.11a8.34,8.34,0,0,1-.76-3.81.46.46,0,0,1,.48-.44.47.47,0,0,1,.44.48h0c-.1,2.23,4.85,3.78,7.26,4.18,3.57.59,3.43,3.32,3.29,6,0,.7-.08,1.43-.06,2.14a53.91,53.91,0,0,1-.26,6c-.08,1-.16,2-.21,2.91l-.32,5.78c0,.19,0,.43,0,.7a4.64,4.64,0,0,1-.19,2,12.88,12.88,0,0,1-9,6.58A8.54,8.54,0,0,1,236.93,82.22Zm-4.65-5.06a4.65,4.65,0,0,0,6.11,4,11.94,11.94,0,0,0,8.31-6.07,4.6,4.6,0,0,0,.1-1.59c0-.29,0-.57,0-.78l.31-5.78c.06-1,.14-2,.22-2.94a52.15,52.15,0,0,0,.26-5.85c0-.75,0-1.5.06-2.22.15-2.91.11-4.58-2.52-5-.07,0-4.62-.79-6.84-2.73a7.22,7.22,0,0,0,1.42,2.68.46.46,0,0,1,0,.6.45.45,0,0,1-.59.07l-3.45-2.28a13.38,13.38,0,0,1-3.11-2.57A5.32,5.32,0,0,1,231.37,44c-3.77,4.45-3.72,9.81-3.66,15.47,0,.87,0,1.74,0,2.61a5,5,0,0,0,1.55,3.78,4.28,4.28,0,0,0,3.48.94.44.44,0,0,1,.38.12.47.47,0,0,1,.14.37l-1,9.87Z" fill="#231f20"></path><path d="M232.41,72.1a9.5,9.5,0,0,0,6.82-1.87,6.94,6.94,0,0,0,2.7-5.16s-4.61,2.5-9.12,2.18Z" fill="#231f20"></path><path d="M233.45,72.6a8.39,8.39,0,0,1-1.1-.06.45.45,0,0,1-.38-.47l.4-4.86a.44.44,0,0,1,.47-.4c4.33.3,8.83-2.1,8.88-2.12a.42.42,0,0,1,.43,0,.44.44,0,0,1,.22.36,7.28,7.28,0,0,1-2.85,5.51A9.39,9.39,0,0,1,233.45,72.6Zm-.56-.9a8.88,8.88,0,0,0,6.05-1.81,7,7,0,0,0,2.49-4.08,19.19,19.19,0,0,1-8.21,1.9Z" fill="#231f20"></path><path d="M234.15,60a2.86,2.86,0,0,1-2.27-.79c-.77-1,1.52-4.13,3-5.89a.44.44,0,0,1,.69.56c-1.71,2.1-3.08,4.35-2.92,4.81.37.5,1.78.46,2.4.36a.44.44,0,0,1,.51.37.43.43,0,0,1-.37.5A5.63,5.63,0,0,1,234.15,60Z" fill="#231f20"></path><path d="M245.22,52.75a9.52,9.52,0,0,1,2.15-3.17,3.19,3.19,0,0,1,3.58-.52c1.22.74,1.49,2.4,1.35,3.82a15.59,15.59,0,0,1-1.3,4.65,5.58,5.58,0,0,1-1.59,2.33,2.18,2.18,0,0,1-2.64.13" fill="#fff"></path><path d="M247.9,60.83a2.21,2.21,0,0,1-1.42-.49.45.45,0,1,1,.58-.7,1.77,1.77,0,0,0,2.08-.14,5.14,5.14,0,0,0,1.44-2.15,15.21,15.21,0,0,0,1.27-4.52c.06-.59.14-2.6-1.13-3.38a2.76,2.76,0,0,0-3.05.48,9.11,9.11,0,0,0-2,3,.47.47,0,0,1-.62.21.45.45,0,0,1-.2-.61,9.75,9.75,0,0,1,2.27-3.32,3.64,3.64,0,0,1,4.11-.56c1.69,1,1.66,3.32,1.57,4.25a16.1,16.1,0,0,1-1.34,4.79,6.13,6.13,0,0,1-1.73,2.52A3.08,3.08,0,0,1,247.9,60.83Z" fill="#231f20"></path><ellipse cx="241.93" cy="53.34" rx="0.58" ry="1.47" fill="#231f20"></ellipse><ellipse cx="230.93" cy="53.34" rx="0.58" ry="1.47" fill="#231f20"></ellipse><path d="M231.54,56h-3a3.14,3.14,0,0,1-3.14-3.13V51.14a.45.45,0,0,1,.45-.45h8.41a.45.45,0,0,1,.45.45v1.71A3.14,3.14,0,0,1,231.54,56Zm-5.28-4.4v1.27a2.25,2.25,0,0,0,2.25,2.25h3a2.25,2.25,0,0,0,2.25-2.25V51.58Z" fill="#231f20"></path><path d="M241.79,56h-3a3.14,3.14,0,0,1-3.14-3.13V51.14a.45.45,0,0,1,.45-.45h8.41a.45.45,0,0,1,.45.45v1.71A3.14,3.14,0,0,1,241.79,56Zm-5.28-4.4v1.27a2.25,2.25,0,0,0,2.25,2.25h3A2.25,2.25,0,0,0,244,52.85V51.58Z" fill="#231f20"></path><path d="M236.19,52.79a.53.53,0,0,1-.24-.06,1.81,1.81,0,0,0-1.52,0,.45.45,0,0,1-.59-.21A.44.44,0,0,1,234,52a2.66,2.66,0,0,1,2.38,0,.44.44,0,0,1,.14.61A.43.43,0,0,1,236.19,52.79Z" fill="#231f20"></path><path d="M247.25,72.75s-4.49,18.14-5.9,29.38c-.85,6.8-6.74,29.34-2,43.93l25.18.84s-3.79-28.15-3.79-31.13,4.71-23.6,4.71-23.6,17.07,16,16.83,19.26-14.36,21.33-14.36,21.33l7.91,10.42s26.78-16.61,25-30S276.8,79.44,272.51,75.11C266.93,69.48,247.25,72.75,247.25,72.75Z" fill="#231f20"></path><path d="M264.52,147.34h0l-25.19-.84a.44.44,0,0,1-.4-.3c-3.87-11.93-.77-28.72,1.08-38.75.42-2.29.76-4.1.91-5.37,1.4-11.14,5.87-29.26,5.91-29.44a.44.44,0,0,1,.36-.33c.81-.14,20-3.24,25.64,2.49l1.88,1.84c6.84,6.66,25,24.33,26.6,36.48.74,5.7-3.3,12.57-12,20.41a106.9,106.9,0,0,1-13.24,10,.44.44,0,0,1-.58-.11L267.56,133a.45.45,0,0,1,0-.54c3.9-5,14.07-18.55,14.27-21.09.16-2.14-9.58-12.18-16.13-18.38-.84,3.73-4.53,20.18-4.53,22.75,0,2.91,3.75,30.79,3.79,31.07a.43.43,0,0,1-.44.5Zm-24.86-1.71,24.36.82c-.53-4-3.73-27.9-3.73-30.68,0-3,4.53-22.86,4.72-23.7a.46.46,0,0,1,.3-.33.47.47,0,0,1,.43.1c1.77,1.66,17.22,16.28,17,19.62-.25,3.15-12.07,18.5-14.25,21.31l7.46,9.82c3.09-2,26.08-17.21,24.5-29.36-1.53-11.84-19.55-29.36-26.33-36-.8-.77-1.45-1.4-1.9-1.85-5-5-22.15-2.65-24.58-2.28-.58,2.35-4.53,18.73-5.82,29.05-.16,1.3-.5,3.11-.92,5.42C239.17,116.83,236,133.92,239.66,145.63Z" fill="#231f20"></path><path d="M260.55,137.67a.48.48,0,0,1-.26-.07l-16.06-9.55a.5.5,0,1,1,.51-.86l16.06,9.55a.5.5,0,0,1,.18.68A.51.51,0,0,1,260.55,137.67Z" fill="#fff"></path><path d="M231.26,74.31s-2.6,14.79-4,24.6c-3.78,26-7.14,45.45-7.14,45.45s-16.18-.69-15.44-1.18,9.46-25.09,8.46-30.55-4-15.32-3.25-17.55,6-17,6-17S221.06,74.31,231.26,74.31Z" fill="#231f20"></path><path d="M220.1,144.8h0c-15.65-.66-15.76-1.09-15.87-1.46a.54.54,0,0,1,.2-.53c.65-.83,9.24-24.82,8.28-30.1-.33-1.81-.87-4.06-1.44-6.45-1.2-5-2.34-9.72-1.8-11.32.73-2.21,5.93-16.86,6-17a.41.41,0,0,1,.15-.21c.22-.16,5.44-3.86,15.67-3.86a.45.45,0,0,1,.34.15.43.43,0,0,1,.09.36c0,.15-2.61,14.9-4,24.59-3.73,25.72-7.1,45.27-7.14,45.46A.43.43,0,0,1,220.1,144.8ZM205.29,143c1.92.31,9.45.73,14.44.94.49-2.85,3.62-21.33,7.07-45.05,1.26-8.67,3.46-21.38,3.93-24.1-8.8.12-13.73,3.11-14.51,3.62-.53,1.49-5.24,14.76-5.94,16.85-.45,1.36.76,6.39,1.82,10.83.58,2.4,1.13,4.67,1.46,6.5.58,3.19-2,12.24-3.6,17.34A134.92,134.92,0,0,1,205.29,143Z" fill="#231f20"></path><path d="M274.4,141.31s-7.12,3.42-9.76,2.54-6.64-4.33-6.64-4.33-6.67-.39-6.77-1.57,2.85-1.57,6.18-.88c0,0-6.08-1.22-6.18-1.86a1.44,1.44,0,0,1,1.47-1.47c.94,0,4.91.68,4.91.68s-4.81-.88-4.46-2,4.23-.32,4.23-.32-3.76-1-3-2c1.11-1.42,8.29,2.08,9.33,2.85a8.53,8.53,0,0,0,5.34,2Z" fill="#fff"></path><path d="M265.68,144.45a3.6,3.6,0,0,1-1.19-.17c-2.47-.82-6-3.72-6.67-4.31-3.19-.2-6.94-.7-7-2a1.14,1.14,0,0,1,.41-1,3.24,3.24,0,0,1,1.5-.62c-1.83-.57-1.88-.92-1.91-1.12a1.64,1.64,0,0,1,.43-1.31,2,2,0,0,1,1.49-.69H253a1.38,1.38,0,0,1-.23-.26.89.89,0,0,1-.09-.71c.19-.6.92-.83,1.78-.89a1.58,1.58,0,0,1-.6-.71.89.89,0,0,1,.16-.85c1.48-1.89,9.24,2.23,10,2.77a8.11,8.11,0,0,0,5,1.86.47.47,0,0,1,.39.16l5.32,6.36a.45.45,0,0,1,.1.39.46.46,0,0,1-.25.31C274.34,141.85,268.89,144.45,265.68,144.45Zm-11.37-7.26a4.29,4.29,0,0,0-2.51.52c-.12.1-.11.17-.11.21.27.41,3.18,1,6.34,1.15a.4.4,0,0,1,.27.11s3.95,3.39,6.48,4.24c1.86.62,6.63-1.25,8.89-2.27l-4.79-5.73a9.34,9.34,0,0,1-5.41-2c-1.45-1.08-8-3.9-8.7-2.94.07.3,1.4.92,2.73,1.26a.47.47,0,0,1,.33.55.46.46,0,0,1-.53.34c-1.89-.36-3.62-.29-3.72,0,.16.33,2.08,1,4.11,1.37a.47.47,0,0,1,.37.53.45.45,0,0,1-.53.37c-1.09-.19-4.09-.68-4.83-.68a1.06,1.06,0,0,0-.8.38.81.81,0,0,0-.22.47,30.55,30.55,0,0,0,5.72,1.56l.1,0a.46.46,0,1,1-.18.9l-.12,0A15.09,15.09,0,0,0,254.31,137.19Z" fill="#231f20"></path><path d="M235.82,63a12.31,12.31,0,0,1-5.71-1.68.44.44,0,0,1,.47-.75c.06,0,5.57,3.42,9.13.05a.44.44,0,1,1,.61.64A6.35,6.35,0,0,1,235.82,63Z" fill="#231f20"></path><rect x="113.06" y="107.38" width="87.89" height="55.01" fill="#fff"></rect><path d="M201,162.85H113.06a.47.47,0,0,1-.46-.46v-55a.47.47,0,0,1,.46-.46H201a.46.46,0,0,1,.45.46v55A.46.46,0,0,1,201,162.85Zm-87.44-.92h87V107.84h-87Z" fill="#231f20"></path><path d="M131.12,147v1.68h3.27v1.62h-3.27v3.17h-2v-8.15h5.56V147Z" fill="#d1d3d4"></path><path d="M144.77,149.37a4.38,4.38,0,0,1-.34,1.76,3.94,3.94,0,0,1-1,1.37,4.23,4.23,0,0,1-1.46.88,5.27,5.27,0,0,1-1.84.32,5.17,5.17,0,0,1-1.83-.32,4.18,4.18,0,0,1-1.45-.88,3.94,3.94,0,0,1-1-1.37,4.63,4.63,0,0,1,0-3.53,3.83,3.83,0,0,1,1-1.34,4.27,4.27,0,0,1,1.45-.85,5.4,5.4,0,0,1,1.83-.3,5.5,5.5,0,0,1,1.84.3,4.32,4.32,0,0,1,1.46.85,3.83,3.83,0,0,1,1,1.34A4.37,4.37,0,0,1,144.77,149.37Zm-2.18,0a2.64,2.64,0,0,0-.18-1,2.35,2.35,0,0,0-.49-.79,2.39,2.39,0,0,0-.76-.52,2.46,2.46,0,0,0-1-.19,2.41,2.41,0,0,0-1,.19,2.51,2.51,0,0,0-.76.52,2.2,2.2,0,0,0-.49.79,2.64,2.64,0,0,0-.18,1,2.84,2.84,0,0,0,.18,1,2.52,2.52,0,0,0,.5.8,2.34,2.34,0,0,0,.75.52,2.62,2.62,0,0,0,2,0,2.39,2.39,0,0,0,.76-.52,2.36,2.36,0,0,0,.5-.8A2.84,2.84,0,0,0,142.59,149.37Z" fill="#d1d3d4"></path><path d="M150.64,153.48l-1.83-3.24h-.7v3.24h-2v-8.15h3.22a5.76,5.76,0,0,1,1.18.12,2.91,2.91,0,0,1,1,.41,2,2,0,0,1,.73.76,2.2,2.2,0,0,1,.28,1.17,2.11,2.11,0,0,1-.47,1.39,2.53,2.53,0,0,1-1.28.81l2.2,3.49Zm-.09-5.66a.81.81,0,0,0-.12-.46.9.9,0,0,0-.33-.28,1.42,1.42,0,0,0-.44-.13l-.47,0H148.1v1.89h1a2.92,2.92,0,0,0,.51,0,1.42,1.42,0,0,0,.48-.14,1,1,0,0,0,.36-.3A.88.88,0,0,0,150.55,147.82Z" fill="#d1d3d4"></path><path d="M161.46,147.44a1.87,1.87,0,0,0-.68-.51,2.16,2.16,0,0,0-.82-.19,1.9,1.9,0,0,0-.41,0,1,1,0,0,0-.66.38.72.72,0,0,0-.11.4.65.65,0,0,0,.09.35.76.76,0,0,0,.26.24,2.63,2.63,0,0,0,.41.19l.54.18.89.3a3.6,3.6,0,0,1,.85.44,2.6,2.6,0,0,1,.63.69,1.88,1.88,0,0,1,.25,1,2.54,2.54,0,0,1-.27,1.21,2.48,2.48,0,0,1-.72.85,3,3,0,0,1-1,.49,4.4,4.4,0,0,1-1.2.17,5.2,5.2,0,0,1-1.75-.31,3.59,3.59,0,0,1-1.41-.87l1.34-1.31a2.34,2.34,0,0,0,.81.61,2.25,2.25,0,0,0,1,.25,2.12,2.12,0,0,0,.44,0,1.88,1.88,0,0,0,.38-.15.84.84,0,0,0,.25-.28.79.79,0,0,0,.1-.42.65.65,0,0,0-.12-.39,1.26,1.26,0,0,0-.34-.29,2.59,2.59,0,0,0-.55-.24l-.74-.24a6,6,0,0,1-.8-.3,2.46,2.46,0,0,1-.69-.44,2,2,0,0,1-.67-1.6,2.24,2.24,0,0,1,.28-1.16,2.5,2.5,0,0,1,.76-.79,3.27,3.27,0,0,1,1-.46,5.28,5.28,0,0,1,1.18-.14,4.44,4.44,0,0,1,1.46.25,3.77,3.77,0,0,1,1.31.75Z" fill="#d1d3d4"></path><path d="M169.77,153.48l-.66-1.6h-3.26l-.62,1.6H163l3.54-8.15h2l3.5,8.15Zm-2.27-6-1.07,2.8h2.12Z" fill="#d1d3d4"></path><path d="M172.74,153.48v-8.15h2v6.43h3.26v1.72Z" fill="#d1d3d4"></path><path d="M179,153.48v-8.15h5.67V147H181v1.55h3.51v1.57H181v1.7h3.92v1.68Z" fill="#d1d3d4"></path><path d="M168.26,60.94l-1.12-6.2s-8.74-3.62-9.76-5.83c-2.28-4.92,5.49,1.42,7.17,1.41s1-2.36.59-2.52a59.76,59.76,0,0,0-8.85-1.68c-2,0-.36-2.56,1.51-2.91s7.74,1.09,7.74,1.09-8.7-6.7-7.71-7.83,6.78,2,10.21,6.07c0,0-7.28-7.29-5.83-8.46s5.34,2.87,8.17,7.13c0,0-4.28-8-1.56-8.67s5.55,6,6.59,10.13c1.43,5.75,1,4,4.47,15.58" fill="#fff"></path><path d="M168.26,61.4a.46.46,0,0,1-.45-.38l-1.07-6c-1.6-.67-8.77-3.79-9.78-6-.37-.8-.72-1.78-.17-2.28a.88.88,0,0,1,.32-.19c-.32,0-.61,0-.82-.05h0c-1.17,0-1.33-.75-1.35-1-.11-1.1,1.32-2.56,2.78-2.83,1.24-.23,4,.25,6,.65-2.37-1.91-6.25-5.24-6.38-6.61a.81.81,0,0,1,.18-.63,1.38,1.38,0,0,1,1.05-.39,10.57,10.57,0,0,1,4.65,1.94c-1-1.28-1.65-2.5-1.61-3.26a1,1,0,0,1,.35-.74,1.5,1.5,0,0,1,1.2-.28c1.37.21,3.3,2,5.13,4.14-.62-1.7-1.05-3.54-.59-4.59a1.5,1.5,0,0,1,1.05-.89,2.31,2.31,0,0,1,1.79.32c2.43,1.46,4.53,6.86,5.35,10.14,1.07,4.29,1.1,4.38,2.51,9l2,6.51a.46.46,0,0,1-.88.26c-.86-2.89-1.48-5-1.95-6.5-1.42-4.69-1.45-4.78-2.53-9.1C174,39,172,34.37,170,33.21a1.39,1.39,0,0,0-1.1-.22.61.61,0,0,0-.44.37c-.59,1.35,1.09,5.4,2.29,7.63a.46.46,0,0,1-.78.47c-2.59-3.9-5.54-6.89-7-7.12a.56.56,0,0,0-.48.09c-.07,1,2.11,3.76,4.17,6a20.94,20.94,0,0,1,1.72,1.81.45.45,0,0,1-.67.61c-.31-.3-1-1-1.73-1.8-2.8-2.6-6.13-4.36-7.47-4.37-.22,0-.31,0-.35.08,0,.75,4,4.33,7.65,7.17a.45.45,0,0,1,.13.56.46.46,0,0,1-.52.24c-1.6-.39-6.09-1.36-7.54-1.08-1.15.21-2.08,1.39-2,1.85,0,.14.31.16.44.16h0a60.68,60.68,0,0,1,9,1.7c.57.21.9,1.39.76,2.17a1.42,1.42,0,0,1-1.5,1.23h0c-.67,0-1.76-.6-3.46-1.57-1.13-.66-3.23-1.87-3.69-1.7a3.29,3.29,0,0,0,.39,1.22c.78,1.68,7.14,4.61,9.53,5.6a.43.43,0,0,1,.27.34l1.12,6.2a.46.46,0,0,1-.37.53Zm-9.72-14.56a25.47,25.47,0,0,1,3,1.56,12.27,12.27,0,0,0,3,1.46h0c.39,0,.51-.17.56-.32a1.7,1.7,0,0,0-.2-1.36C164.68,48.11,161.15,47.27,158.54,46.84Z" fill="#231f20"></path><path d="M147.16,50.91l.29,8.81,1.87,2.38,3.19-.11.24,5.05,1.73.76s-1,.93-.92,1.49,1.46,1,1.46,1S154,71,154,71.64a8.61,8.61,0,0,0,.18,2.94l1.05.93a.87.87,0,0,0-.5.92,2.58,2.58,0,0,0,.94,1.27s-.8.77-.68,1.41,2.62,3,2.62,3l2.2-2.52-.62-18.81,2.66-2.94-.33-9.93a2,2,0,0,0-2.57-1.83l-10.17,3.15Zm7.53-2.31s3.81-1.48,4.36-1.33.12,3.58.12,3.58l-4.1.67Z" fill="#00ACCF"></path><path d="M157.57,82.57a.47.47,0,0,1-.31-.12c-1-.92-2.65-2.57-2.76-3.27a2,2,0,0,1,.48-1.43,2.51,2.51,0,0,1-.75-1.25,1.26,1.26,0,0,1,.26-1l-.66-.6c-.54-.5-.33-3.28-.33-3.31a2.15,2.15,0,0,1,.65-1.16c-.46-.23-1-.59-1-1.07A2,2,0,0,1,153.7,68l-1.13-.5a.45.45,0,0,1-.27-.39l-.23-4.59-2.73.09a.45.45,0,0,1-.37-.18L147.09,60a.52.52,0,0,1-.1-.27l-.29-8.8a.46.46,0,0,1,.13-.33l1.57-1.67a.63.63,0,0,1,.2-.13l10.17-3.15a2.45,2.45,0,0,1,3.17,2.25l.32,9.94a.42.42,0,0,1-.11.32L159.61,61l.62,18.63a.51.51,0,0,1-.11.31l-2.2,2.52a.44.44,0,0,1-.32.15ZM153.2,66.73l1.47.65a.47.47,0,0,1,.26.35.45.45,0,0,1-.14.41c-.41.37-.8.9-.78,1.07a2.45,2.45,0,0,0,1.15.66.49.49,0,0,1,.31.37.45.45,0,0,1-.2.44c-.33.23-.83.71-.85,1a10.53,10.53,0,0,0,.08,2.63c.2.16,1,.86,1,.86a.46.46,0,0,1,.15.41.45.45,0,0,1-.27.35.4.4,0,0,0-.23.43c.05.35.54.8.76,1a.47.47,0,0,1,.19.34A.5.5,0,0,1,156,78c-.25.24-.6.73-.55,1a12.77,12.77,0,0,0,2.14,2.43l1.77-2-.62-18.64a.49.49,0,0,1,.12-.32l2.53-2.8L161,47.93a1.52,1.52,0,0,0-2-1.4l-10,3.11-1.37,1.45.28,8.46,1.64,2.09,3-.1A.46.46,0,0,1,153,62ZM155.07,52a.47.47,0,0,1-.28-.09.5.5,0,0,1-.18-.31l-.37-2.92a.44.44,0,0,1,.29-.48c1.8-.7,4.06-1.5,4.63-1.36.31.08.93.25.46,4.09a.45.45,0,0,1-.38.39l-4.1.67Zm.12-3.08.27,2.09,3.29-.53a11.82,11.82,0,0,0,.06-2.74A27,27,0,0,0,155.19,48.9Z" fill="#231f20"></path><path d="M158.19,79.54a.45.45,0,0,1-.45-.44l-.61-18.35a.46.46,0,0,1,.44-.47.45.45,0,0,1,.47.44l.61,18.35a.46.46,0,0,1-.44.47Z" fill="#231f20"></path><path d="M151.78,60.35a.5.5,0,0,1-.21-.05l-2.33-1.23a.45.45,0,0,1-.24-.34l-.86-6.49a.42.42,0,0,1,.05-.29l.92-1.66a.47.47,0,0,1,.24-.2l3.87-1.44a.48.48,0,0,1,.39,0,.45.45,0,0,1,.22.33l.48,3.46,4-.35a.45.45,0,0,1,.34.11.46.46,0,0,1,.15.33l.19,5.54a.46.46,0,0,1-.35.45l-6.78,1.78Zm-1.9-2,2,1,6.26-1.64L158,53.08l-4,.35a.46.46,0,0,1-.5-.39L153,49.71l-3.17,1.17-.77,1.39Z" fill="#231f20"></path><path d="M158.9,47.25a7,7,0,0,0-1.53-.86,2.34,2.34,0,0,0-1.81-.22,1,1,0,0,0-.45.81,2.17,2.17,0,0,0,.19.94c.47,1.1,2.43,2.16,3.58,2.46" fill="#fff"></path><path d="M158.88,50.83h-.11c-1.28-.33-3.34-1.45-3.89-2.72a2.54,2.54,0,0,1-.23-1.15,1.52,1.52,0,0,1,.67-1.17c.81-.5,2.19.17,2.25.2l.43.21a5.24,5.24,0,0,1,1.17.69.44.44,0,0,1,.09.64.46.46,0,0,1-.64.09,4,4,0,0,0-1-.59l-.45-.22a2,2,0,0,0-1.36-.24.61.61,0,0,0-.24.46,1.66,1.66,0,0,0,.16.72c.4.92,2.23,1.93,3.27,2.2a.45.45,0,0,1-.11.89Z" fill="#231f20"></path><path d="M242.51,105.5a.48.48,0,0,1-.37-.17.5.5,0,0,1,0-.71l10.1-8.9-3.91-5.64a.51.51,0,0,1,.08-.67l7.16-6.09c-4.91-7.67-4.9-8.12-4.89-8.3a.53.53,0,0,1,.52-.48.51.51,0,0,1,.48.44c.2.59,2.7,4.63,5,8.16a.49.49,0,0,1-.1.65l-7.15,6.09,3.92,5.64a.51.51,0,0,1-.08.66l-10.44,9.19A.46.46,0,0,1,242.51,105.5Z" fill="#fff"></path><path d="M224.55,107.12a.49.49,0,0,1-.45-.29l-4.45-9.31a.49.49,0,0,1,0-.47l4-6.88-4.88-3.44a.47.47,0,0,1-.21-.35.51.51,0,0,1,.12-.39l8.13-9.1a.5.5,0,0,1,.75.66l-7.76,8.69,4.8,3.37a.5.5,0,0,1,.14.66l-4.12,7.06L225,106.4a.5.5,0,0,1-.24.67A.54.54,0,0,1,224.55,107.12Z" fill="#fff"></path><path d="M209.25,137.17a.5.5,0,0,1-.43-.25.5.5,0,0,1,.18-.69l8.7-5a.5.5,0,0,1,.5.86l-8.7,5A.59.59,0,0,1,209.25,137.17Z" fill="#fff"></path><path d="M167.71,140.32H147.22a.5.5,0,0,1-.5-.5V121.37a.51.51,0,0,1,.5-.5h20.49a.5.5,0,0,1,.5.5v18.45A.5.5,0,0,1,167.71,140.32Zm-20-1h19.49V121.87H147.72Z" fill="#d1d3d4"></path><polygon points="157.47 113.69 170.49 121.37 144.44 121.37 157.47 113.69" fill="#d1d3d4"></polygon><path d="M170.49,121.87H144.44a.5.5,0,0,1-.48-.37.49.49,0,0,1,.23-.56l13-7.68a.52.52,0,0,1,.51,0l13,7.68a.49.49,0,0,1,.23.56A.5.5,0,0,1,170.49,121.87Zm-24.21-1h22.38l-11.19-6.6Z" fill="#d1d3d4"></path><path d="M160.35,140.26h-5a.5.5,0,0,1-.5-.5v-7.85a.5.5,0,0,1,.5-.5h5a.5.5,0,0,1,.5.5v7.85A.5.5,0,0,1,160.35,140.26Zm-4.52-1h4v-6.85h-4Z" fill="#d1d3d4"></path><polygon points="147.22 123.17 133.98 123.17 128.35 130.6 147.22 130.6 147.22 123.17" fill="#d1d3d4"></polygon><path d="M147.22,131.1H128.35a.5.5,0,0,1-.45-.28.49.49,0,0,1,0-.52l5.63-7.43a.52.52,0,0,1,.4-.2h13.24a.5.5,0,0,1,.5.5v7.43A.5.5,0,0,1,147.22,131.1Zm-17.87-1h17.37v-6.43H134.23Z" fill="#d1d3d4"></path><path d="M147.22,140.32H129.79a.5.5,0,0,1-.5-.5V130.6a.5.5,0,0,1,.5-.5h17.43a.5.5,0,0,1,.5.5v9.22A.5.5,0,0,1,147.22,140.32Zm-16.93-1h16.43V131.1H130.29Z" fill="#d1d3d4"></path><polygon points="165.96 133.22 148.97 133.22 150.52 130.6 164.41 130.6 165.96 133.22" fill="#d1d3d4"></polygon><path d="M166,133.72H149a.51.51,0,0,1-.43-.76l1.55-2.62a.5.5,0,0,1,.43-.24h13.89a.5.5,0,0,1,.43.24l1.55,2.62a.51.51,0,0,1-.43.76Zm-16.11-1h15.23l-1-1.62H150.81Z" fill="#d1d3d4"></path><path d="M162.7,129.5H152.47a.5.5,0,0,1-.5-.5v-4.23a.5.5,0,0,1,.5-.5H162.7a.51.51,0,0,1,.5.5V129A.51.51,0,0,1,162.7,129.5Zm-9.73-1h9.23v-3.23H153Z" fill="#d1d3d4"></path><path d="M136.81,137.33H133.2a.5.5,0,0,1-.5-.5v-3.61a.5.5,0,0,1,.5-.5h3.61a.5.5,0,0,1,.5.5v3.61A.5.5,0,0,1,136.81,137.33Zm-3.11-1h2.61v-2.61H133.7Z" fill="#d1d3d4"></path><path d="M143.38,137.33h-3.61a.5.5,0,0,1-.5-.5v-3.61a.5.5,0,0,1,.5-.5h3.61a.5.5,0,0,1,.5.5v3.61A.5.5,0,0,1,143.38,137.33Zm-3.11-1h2.61v-2.61h-2.61Z" fill="#d1d3d4"></path><path d="M153.58,138.05h-2.52a.5.5,0,0,1-.5-.5V135a.5.5,0,0,1,.5-.5h2.52a.5.5,0,0,1,.5.5v2.53A.5.5,0,0,1,153.58,138.05Zm-2-1h1.52v-1.53h-1.52Z" fill="#d1d3d4"></path><path d="M164.45,138.05h-2.53a.51.51,0,0,1-.5-.5V135a.51.51,0,0,1,.5-.5h2.53a.51.51,0,0,1,.5.5v2.53A.51.51,0,0,1,164.45,138.05Zm-2-1H164v-1.53h-1.53Z" fill="#d1d3d4"></path><path d="M180.28,140.32H167.71a.5.5,0,0,1-.5-.5v-10a.5.5,0,0,1,.5-.5h12.57a.5.5,0,0,1,.5.5v10A.5.5,0,0,1,180.28,140.32Zm-12.07-1h11.57v-9H168.21Z" fill="#d1d3d4"></path><rect x="170.49" y="132.47" width="7.29" height="7.29" fill="#d1d3d4"></rect><path d="M177.78,140.26h-7.29a.5.5,0,0,1-.5-.5v-7.29a.5.5,0,0,1,.5-.5h7.29a.5.5,0,0,1,.5.5v7.29A.5.5,0,0,1,177.78,140.26Zm-6.79-1h6.29V133H171Z" fill="#d1d3d4"></path><polygon points="167.71 125.61 179.03 125.61 183.44 129.84 167.71 129.84 167.71 125.61" fill="#d1d3d4"></polygon><path d="M183.44,130.34H167.71a.51.51,0,0,1-.5-.5v-4.23a.51.51,0,0,1,.5-.5H179a.48.48,0,0,1,.34.14l4.42,4.23a.49.49,0,0,1,.11.54A.5.5,0,0,1,183.44,130.34Zm-15.23-1h14l-3.36-3.23H168.21Z" fill="#d1d3d4"></path><path d="M174.05,265.47h-23.5a.46.46,0,0,1,0-.91h23.5a.46.46,0,1,1,0,.91Z" fill="#231f20"></path></g></svg>