<svg id="Layer_1" data-name="Layer 1" xmlns="http://www.w3.org/2000/svg" viewBox="0 0 400 300" width="406" height="306" class="illustration styles_illustrationTablet__1DWOa"><rect x="63.99" y="226.53" width="18.81" height="25.23" fill="#00ACCF"></rect><polygon points="56.59 213.91 76.93 213.91 82.79 226.53 63.99 226.53 56.59 213.91" fill="#00ACCF"></polygon><rect x="50.04" y="226.53" width="13.91" height="25.23" fill="#00ACCF"></rect><rect x="63.99" y="226.53" width="18.81" height="25.23" opacity="0.09"></rect><polygon points="56.59 213.91 76.93 213.91 82.79 226.53 63.99 226.53 56.59 213.91" opacity="0.09"></polygon><rect x="52.14" y="231.86" width="3.71" height="4.54" fill="#fff"></rect><rect x="58.2" y="231.86" width="3.71" height="4.54" fill="#fff"></rect><rect x="54.78" y="243.46" width="5.05" height="8.3" fill="#fff"></rect><polygon points="63.95 226.53 56.56 213.91 50.04 226.53 63.95 226.53" fill="#00ACCF"></polygon><polygon points="76.93 213.91 56.59 213.91 63.99 226.53 63.99 251.76 82.79 251.76 82.79 226.53 76.93 213.91" opacity="0.09"></polygon><circle cx="311.91" cy="69.63" r="20.86" fill="#ffd200"></circle><circle cx="311.91" cy="69.63" r="32.61" fill="#ffd200" opacity="0.15"></circle><path d="M347.49,148.36a6.73,6.73,0,0,0-2.29.41,11.59,11.59,0,1,0-22.64-3.51c0,.31,0,.61.05.92a8.39,8.39,0,1,0-3.8,15.87h28.68a6.85,6.85,0,1,0,0-13.69Z" fill="#dddbdb" opacity="0.64"></path><path d="M86.06,163.4a4.57,4.57,0,0,0-1.49.26,7.82,7.82,0,0,0,.35-2.28,7.56,7.56,0,1,0-15.12,0,5.68,5.68,0,0,0,0,.59,5.48,5.48,0,1,0-2.48,10.36H86.06a4.47,4.47,0,1,0,0-8.93Z" fill="#fff" opacity="0.48"></path><path d="M73.42,111.63a4.36,4.36,0,0,0-1.49.26,7.44,7.44,0,0,0,.36-2.27,7.52,7.52,0,0,0-15,0c0,.2,0,.39,0,.59a5.35,5.35,0,0,0-2.46-.59,5.44,5.44,0,1,0,0,10.88h18.6a4.44,4.44,0,1,0,0-8.87Z" fill="#dddbdb"></path><path d="M197.85,50.75a5.85,5.85,0,0,0-2,.38,10,10,0,1,0-19.61-2.65c0,.27,0,.53,0,.79a7.25,7.25,0,1,0-3,13.77l24.77-.47a5.91,5.91,0,0,0-.23-11.82Z" fill="#dddbdb" opacity="0.33"></path><rect x="122.11" y="154.96" width="3.51" height="5.38" fill="#fff"></rect><polygon points="216.93 86.03 188.22 86.03 188.22 217.84 207.54 217.84 216.93 217.84 241.62 217.84 241.62 106.69 216.93 86.03" fill="#dddbdb" opacity="0.53"></polygon><rect x="195.75" y="139.99" width="4.44" height="6.8" fill="#fff"></rect><rect x="195.75" y="158.66" width="4.44" height="6.8" fill="#fff"></rect><rect x="195.75" y="178.98" width="4.44" height="6.8" fill="#fff"></rect><rect x="205.38" y="178.98" width="4.44" height="6.8" fill="#fff"></rect><rect x="195.75" y="198.86" width="4.44" height="6.8" fill="#fff"></rect><rect x="205.38" y="198.86" width="4.44" height="6.8" fill="#fff"></rect><polygon points="277.65 123.87 248.94 123.87 248.94 255.67 268.27 255.67 277.65 255.67 302.34 255.67 302.34 144.53 277.65 123.87" fill="#dddbdb" opacity="0.67"></polygon><rect x="251.48" y="196.49" width="4.44" height="6.8" fill="#fff"></rect><rect x="261.11" y="196.49" width="4.44" height="6.8" fill="#fff"></rect><rect x="251.48" y="216.82" width="4.44" height="6.8" fill="#fff"></rect><rect x="261.11" y="216.82" width="4.44" height="6.8" fill="#fff"></rect><rect x="251.48" y="236.69" width="4.44" height="6.8" fill="#fff"></rect><rect x="261.11" y="236.69" width="4.44" height="6.8" fill="#fff"></rect><polygon points="143.87 93.23 137.34 93.23 118.78 93.23 118.78 138.36 106.81 128.35 78.11 128.35 78.11 198.59 99.49 198.59 97.43 218.41 131.51 218.41 131.51 193.76 137.34 193.76 143.87 193.76 162.42 193.76 162.42 93.23 143.87 93.23" fill="#dddbdb" opacity="0.33"></polygon><polygon points="128.89 161.55 153.58 182.21 153.58 251.61 119.5 251.61 128.89 161.55" fill="#24285b"></polygon><polygon points="128.89 161.55 153.58 182.21 153.58 251.61 119.5 251.61 128.89 161.55" opacity="0.35"></polygon><polygon points="134.7 251.61 132.86 251.61 132.86 164.88 134.7 166.42 134.7 251.61" fill="#fff" opacity="0.25"></polygon><polygon points="141.43 251.61 139.59 251.61 139.59 170.51 141.43 172.05 141.43 251.61" fill="#fff" opacity="0.25"></polygon><polygon points="147.91 251.61 146.07 251.61 146.07 175.91 147.91 177.47 147.91 251.61" fill="#fff"></polygon><rect x="100.18" y="161.55" width="28.71" height="70.24" fill="#24285b"></rect><rect x="215.31" y="179" width="43.84" height="72.51" fill="#00ACCF"></rect><rect x="215.31" y="179" width="43.84" height="72.51" opacity="0.18"></rect><rect x="205.2" y="179" width="28.61" height="72.51" fill="#00ACCF"></rect><rect x="209.69" y="184.51" width="3.3" height="32.13" fill="#fff"></rect><rect x="216.54" y="184.51" width="3.3" height="32.13" fill="#fff"></rect><rect x="223.38" y="184.51" width="3.3" height="32.13" fill="#fff"></rect><rect x="145.09" y="124.38" width="31.72" height="127.13" fill="#ffd200"></rect><rect x="168.56" y="124.38" width="31.72" height="127.13" fill="#ffd200"></rect><rect x="168.56" y="124.38" width="31.72" height="127.13" opacity="0.09"></rect><rect x="173.58" y="203.81" width="21.67" height="4.05" fill="#fff" opacity="0.25"></rect><rect x="173.58" y="142.94" width="21.67" height="4.05" fill="#fff" opacity="0.25"></rect><rect x="239.06" y="186.98" width="15.05" height="3.24" fill="#fff" opacity="0.33"></rect><rect x="239.06" y="197.78" width="15.05" height="3.24" fill="#fff" opacity="0.33"></rect><rect x="239.06" y="208.92" width="15.05" height="3.24" fill="#fff" opacity="0.33"></rect><rect x="239.06" y="220.06" width="15.05" height="3.24" fill="#fff" opacity="0.33"></rect><rect x="173.58" y="163.27" width="21.67" height="4.05" fill="#fff" opacity="0.25"></rect><rect x="173.58" y="183.14" width="21.67" height="4.05" fill="#fff" opacity="0.25"></rect><rect x="149.31" y="141.57" width="4.44" height="6.8" fill="#fff"></rect><rect x="158.93" y="141.57" width="4.44" height="6.8" fill="#fff"></rect><rect x="149.31" y="161.89" width="4.44" height="6.8" fill="#fff"></rect><rect x="158.93" y="161.89" width="4.44" height="6.8" fill="#fff"></rect><rect x="149.31" y="181.77" width="4.44" height="6.8" fill="#fff"></rect><rect x="158.93" y="181.77" width="4.44" height="6.8" fill="#fff"></rect><rect x="149.31" y="202.44" width="4.44" height="6.8" fill="#fff"></rect><rect x="158.93" y="202.44" width="4.44" height="6.8" fill="#fff"></rect><rect x="173.58" y="222.68" width="21.67" height="4.05" fill="#fff" opacity="0.25"></rect><rect x="149.31" y="221.3" width="4.44" height="6.8" fill="#fff"></rect><rect x="158.93" y="221.3" width="4.44" height="6.8" fill="#fff"></rect><rect x="72.58" y="201.36" width="25.92" height="50.25" fill="#00ACCF"></rect><rect x="91.76" y="201.36" width="25.92" height="50.25" fill="#00ACCF"></rect><polygon points="91.76 201.36 81.56 183.96 72.58 201.36 91.76 201.36" fill="#00ACCF"></polygon><polygon points="81.56 183.96 109.6 183.96 117.68 201.36 91.76 201.36 81.56 183.96" fill="#00ACCF"></polygon><polygon points="109.6 183.96 81.56 183.96 91.76 201.36 91.76 251.61 117.68 251.61 117.68 201.36 109.6 183.96" opacity="0.09"></polygon><rect x="76.03" y="209.87" width="5.11" height="6.26" fill="#fff"></rect><rect x="83.14" y="209.87" width="5.11" height="6.26" fill="#fff"></rect><rect x="76.03" y="225.1" width="5.11" height="6.26" fill="#fff"></rect><rect x="83.14" y="225.1" width="5.11" height="6.26" fill="#fff"></rect><rect x="78.58" y="239.52" width="6.96" height="11.45" fill="#fff"></rect><rect x="245.49" y="208.03" width="22.9" height="44.4" fill="#ffd200"></rect><polygon points="262.44 208.03 253.43 192.66 245.5 208.03 262.44 208.03" fill="#ffd200"></polygon><polygon points="278.2 192.66 253.43 192.66 262.44 208.03 262.44 252.43 285.34 252.43 285.34 208.03 278.2 192.66" fill="#ffd200"></polygon><polygon points="278.2 192.66 253.43 192.66 262.44 208.03 262.44 252.43 285.34 252.43 285.34 208.03 278.2 192.66" opacity="0.18"></polygon><rect x="248.54" y="212.23" width="4.51" height="5.53" fill="#fff"></rect><rect x="254.83" y="212.23" width="4.51" height="5.53" fill="#fff"></rect><rect x="248.54" y="221.53" width="4.51" height="5.53" fill="#fff"></rect><rect x="254.83" y="221.53" width="4.51" height="5.53" fill="#fff"></rect><rect x="248.54" y="231.05" width="4.51" height="5.53" fill="#fff"></rect><rect x="254.83" y="231.05" width="4.51" height="5.53" fill="#fff"></rect><rect x="250.8" y="241.74" width="6.15" height="10.11" fill="#fff"></rect><rect x="153.13" y="239.52" width="6.96" height="11.45" fill="#fff"></rect><rect x="271.45" y="153.6" width="31.72" height="97.91" fill="#24285b"></rect><rect x="294.92" y="153.6" width="31.72" height="97.91" fill="#24285b"></rect><rect x="294.92" y="153.6" width="31.72" height="97.91" opacity="0.35"></rect><rect x="299.95" y="203.81" width="21.67" height="4.05" fill="#fff" opacity="0.33"></rect><rect x="299.95" y="163.27" width="21.67" height="4.05" fill="#fff" opacity="0.33"></rect><rect x="299.95" y="183.14" width="21.67" height="4.05" fill="#fff" opacity="0.33"></rect><rect x="275.67" y="161.89" width="4.44" height="6.8" fill="#fff"></rect><rect x="285.29" y="161.89" width="4.44" height="6.8" fill="#fff"></rect><rect x="275.67" y="181.77" width="4.44" height="6.8" fill="#fff"></rect><rect x="285.29" y="181.77" width="4.44" height="6.8" fill="#fff"></rect><rect x="275.67" y="202.44" width="4.44" height="6.8" fill="#fff"></rect><rect x="285.29" y="202.44" width="4.44" height="6.8" fill="#fff"></rect><rect x="299.95" y="222.68" width="21.67" height="4.05" fill="#fff"></rect><rect x="275.67" y="221.3" width="4.44" height="6.8" fill="#fff"></rect><rect x="285.29" y="221.3" width="4.44" height="6.8" fill="#fff"></rect><rect x="279.49" y="239.52" width="6.96" height="11.45" fill="#fff"></rect><rect x="178.38" y="215.78" width="26.82" height="35.98" fill="#00ACCF"></rect><polygon points="198.22 215.78 187.67 197.78 178.38 215.78 198.22 215.78" fill="#00ACCF"></polygon><polygon points="216.68 197.78 187.67 197.78 198.22 215.78 198.22 251.76 225.03 251.76 225.03 215.78 216.68 197.78" fill="#00ACCF"></polygon><polygon points="216.68 197.78 187.67 197.78 198.22 215.78 198.22 251.76 225.03 251.76 225.03 215.78 216.68 197.78" opacity="0.09"></polygon><polygon points="224.68 224.35 209.95 224.35 215.31 233.49 215.31 251.76 228.93 251.76 228.93 233.49 224.68 224.35" fill="#00ACCF"></polygon><polygon points="224.68 224.35 209.95 224.35 215.31 233.49 215.31 251.76 228.93 251.76 228.93 233.49 224.68 224.35" opacity="0.09"></polygon><rect x="219.44" y="238.05" width="5.56" height="6.79" fill="#fff" opacity="0.33"></rect><polygon points="209.95 224.35 209.95 251.76 215.31 251.76 215.31 233.49 209.95 224.35" fill="#00ACCF"></polygon><rect x="202.05" y="222.71" width="5.56" height="6.79" fill="#fff" opacity="0.33"></rect><rect x="202.05" y="236.15" width="5.56" height="6.79" fill="#fff" opacity="0.33"></rect><rect x="180.93" y="223.38" width="5.29" height="6.47" fill="#fff"></rect><rect x="189.58" y="223.38" width="5.29" height="6.47" fill="#fff"></rect><rect x="184.7" y="239.92" width="7.2" height="11.84" fill="#fff"></rect><polygon points="119.57 226.53 112.17 213.91 105.66 226.53 119.57 226.53" fill="#ffd200"></polygon><rect x="105.66" y="226.53" width="13.91" height="25.23" fill="#ffd200"></rect><polygon points="132.51 213.91 112.17 213.91 119.57 226.53 119.57 251.76 138.37 251.76 138.37 226.53 132.51 213.91" fill="#ffd200"></polygon><polygon points="132.51 213.91 112.17 213.91 119.57 226.53 119.57 251.76 138.37 251.76 138.37 226.53 132.51 213.91" opacity="0.09"></polygon><rect x="107.45" y="231.86" width="3.71" height="4.54" fill="#fff"></rect><rect x="113.51" y="231.86" width="3.71" height="4.54" fill="#fff"></rect><rect x="110.09" y="243.46" width="5.05" height="8.3" fill="#fff"></rect><circle cx="112.37" cy="222.85" r="2.28" fill="#fff"></circle><polygon points="285.34 226.53 277.94 213.91 271.43 226.53 285.34 226.53" fill="#00ACCF"></polygon><rect x="271.43" y="226.53" width="13.91" height="25.23" fill="#00ACCF"></rect><polygon points="298.28 213.91 277.94 213.91 285.34 226.53 285.34 251.76 304.14 251.76 304.14 226.53 298.28 213.91" fill="#00ACCF"></polygon><polygon points="298.28 213.91 277.94 213.91 285.34 226.53 285.34 251.76 304.14 251.76 304.14 226.53 298.28 213.91" opacity="0.18"></polygon><rect x="273.22" y="231.86" width="3.71" height="4.54" fill="#fff"></rect><rect x="279.28" y="231.86" width="3.71" height="4.54" fill="#fff"></rect><rect x="275.86" y="243.46" width="5.05" height="8.3" fill="#fff"></rect><rect x="40.48" y="251.51" width="317.69" height="9.42" rx="3.78" fill="#24285b"></rect><rect x="297.6" y="215.78" width="26.82" height="35.98" fill="#ffd200"></rect><polygon points="317.43 215.78 306.89 197.78 297.6 215.78 317.43 215.78" fill="#ffd200"></polygon><polygon points="335.89 197.78 306.89 197.78 317.43 215.78 317.43 251.76 344.25 251.76 344.25 215.78 335.89 197.78" fill="#ffd200"></polygon><polygon points="343.9 224.35 329.17 224.35 334.52 233.49 334.52 251.76 348.14 251.76 348.14 233.49 343.9 224.35" fill="#ffd200"></polygon><polygon points="335.89 197.78 306.89 197.78 317.43 215.78 317.43 251.76 344.25 251.76 344.25 215.78 335.89 197.78" opacity="0.18"></polygon><polygon points="343.9 224.35 329.17 224.35 334.52 233.49 334.52 251.76 348.14 251.76 348.14 233.49 343.9 224.35" fill="#ffd200"></polygon><polygon points="343.9 224.35 329.17 224.35 334.52 233.49 334.52 251.76 348.14 251.76 348.14 233.49 343.9 224.35" opacity="0.18"></polygon><rect x="338.65" y="238.05" width="5.56" height="6.79" fill="#fff" opacity="0.33"></rect><polygon points="329.17 224.35 329.17 251.76 334.52 251.76 334.52 233.49 329.17 224.35" fill="#ffd200"></polygon><rect x="321.27" y="222.71" width="5.56" height="6.79" fill="#fff" opacity="0.33"></rect><rect x="321.27" y="236.15" width="5.56" height="6.79" fill="#fff" opacity="0.33"></rect><rect x="300.15" y="223.38" width="5.29" height="6.47" fill="#fff"></rect><rect x="308.79" y="223.38" width="5.29" height="6.47" fill="#fff"></rect><rect x="303.92" y="239.92" width="7.2" height="11.84" fill="#fff"></rect><circle cx="307.17" cy="210.54" r="3.25" fill="#fff"></circle></svg>