<svg id="Layer_2" data-name="Layer 2" xmlns="http://www.w3.org/2000/svg" xmlns:xlink="http://www.w3.org/1999/xlink" viewBox="0 0 400 300" width="406" height="306" class="illustration styles_illustrationTablet__1DWOa"><defs><linearGradient id="linear-gradient" x1="178.31" y1="252.22" x2="214.19" y2="227.48" gradientUnits="userSpaceOnUse"><stop offset="0" stop-color="#003b94" stop-opacity="0"></stop><stop offset="1" stop-color="#42210b"></stop></linearGradient><linearGradient id="linear-gradient-2" x1="144.59" y1="212.65" x2="173.31" y2="165.64" xlink:href="#linear-gradient"></linearGradient><linearGradient id="linear-gradient-3" x1="309.47" y1="207.61" x2="320.14" y2="196.27" xlink:href="#linear-gradient"></linearGradient><linearGradient id="linear-gradient-4" x1="63.81" y1="193.2" x2="71.17" y2="185.38" gradientUnits="userSpaceOnUse"><stop offset="0" stop-color="#ff734d" stop-opacity="0"></stop><stop offset="1" stop-color="#42210b"></stop></linearGradient><linearGradient id="linear-gradient-5" x1="250.89" y1="230.79" x2="286.99" y2="205.9" xlink:href="#linear-gradient"></linearGradient></defs><title>PP</title><path d="M196.24,288.6,23.74,186.65c-5.49-3.08-10.2-8.15-4.85-11.46L192,75.41c2.6-1.61,6.54-2.66,9.18-1.13L382.28,179.37c5.49,3.19,6.48,12.1,1,15.29L219,288.44A22.94,22.94,0,0,1,196.24,288.6Z" fill="#6182e0"></path><polyline points="214.66 247.22 177.43 270.26 152.66 249.85 200 237.25" fill="url(#linear-gradient)"></polyline><polyline points="253.28 174 157.24 227.19 81.42 176.77 129.47 152.55" fill="url(#linear-gradient-2)"></polyline><polygon points="215.79 193.59 304.42 239.66 326.77 226.75 239.43 181.24 215.79 193.59" fill="#91aae2"></polygon><polyline points="170.17 34.33 170.17 49.72 187.05 59.3 187.6 41.85" fill="#4a6eaf"></polyline><polyline points="194.84 39.62 194.84 63.46 187.05 59.3 186.55 44.05" fill="#123582"></polyline><polygon points="170.17 34.33 178.23 29.7 194.84 39.62 186.55 44.05 170.17 34.33" fill="#254f99"></polygon><polygon points="117.45 103.67 117.45 164.15 191.13 206.49 191.13 146 117.45 103.67" fill="#ada2ff"></polygon><polygon points="191.13 146 222.88 78.18 253.28 113.93 253.28 174 191.13 206.49 191.13 146" fill="#ada2ff"></polygon><polygon points="191.13 146 222.88 78.18 253.28 113.93 253.28 174 191.13 206.49 191.13 146" fill="#2e818e" opacity="0.53"></polygon><polygon points="236.08 183 236.08 139.74 215.79 151.47 215.79 193.59 236.08 183" fill="#723b2e"></polygon><polygon points="236.08 139.74 239.43 137.43 239.43 181.24 236.08 183 236.08 139.74" fill="#ffc4b2"></polygon><polyline points="125.4 130.72 123.55 129.51 123.55 149.24 143.18 160.21 144.78 159.1" fill="#ffe7e1"></polyline><polygon points="125.4 130.72 125.4 148.1 144.78 159.1 144.78 142.6 125.4 130.72" fill="#723b2e"></polygon><polyline points="157.24 146.08 155.39 144.86 155.39 164.59 175.02 175.56 176.62 174.45" fill="#ffe7e1"></polyline><polygon points="157.24 146.08 157.24 163.45 176.62 174.45 176.62 157.95 157.24 146.08" fill="#723b2e"></polygon><polygon points="191.13 146 222.88 78.18 147.26 33.3 117.45 103.67 191.13 146" fill="#123582"></polygon><path d="M301.35,205.28c1.3-.22,2.35-.19,2.86.4-.91,9,5.56,4.6,8.4,6.87l2.44-1q7.4-7.41,14.88-14.72c-1.71-1.23-3.36-2.54-5-3.84A157.58,157.58,0,0,0,301.35,205.28Z" opacity="0.41" fill="url(#linear-gradient-3)"></path><path d="M330.62,196.9V152.55H321v44.74C324.3,198.26,327.81,198.41,330.62,196.9Z" fill="#a83f1e"></path><path d="M326.77,152.67V198.1a9.72,9.72,0,0,0,3.85-1.07V152.67Z" fill="#7f2b14"></path><path d="M339.23,156.7c6-.29,13.69-2.45,11.44-9.14-1.33-4-5.42-7.44-8-10.58s-2-5.24-5-8.3c2.49.1,6.1-.37,6.71-2.83.54-2.16-11.07-15.4-16.09-20.77a3.21,3.21,0,0,0-4.36-.32c-6,4.76-21.25,17.44-19.12,21.09,1.29,2.2,3.89,3,6.21,3.17-5.49,5.51-11.76,12.39-12.39,19.73-.55,6.36,6,7.21,12,6.88-4.19,5.09-15.56,19.6-13,24,1.37,2.32,5.78,3.09,8.39,3.61a83.37,83.37,0,0,0,17.2,1.66,53,53,0,0,0,17.1-2.58,24,24,0,0,0,8.34-4.59c2.67-2.51,1.18-5.18-.55-7.7C345.15,165.62,342.19,161.16,339.23,156.7Z" fill="#77c457"></path><path d="M337.68,128.68s-7.31-.48-12.4-.34l25.79,21.2s.69-2.46-3.87-7.51A103.77,103.77,0,0,1,337.68,128.68Z" fill="#0d5b23"></path><path d="M339.23,156.7h-15l24.5,21a3.73,3.73,0,0,0,1.08-4.84C348.18,170,339.23,156.7,339.23,156.7Z" fill="#0d5b23"></path><path d="M58.2,191.6c.9-.15,1.62-.13,2,.28-.63,6.21,3.84,3.18,5.8,4.74l1.68-.7q5.1-5.11,10.27-10.16c-1.18-.85-2.32-1.75-3.46-2.65A108.72,108.72,0,0,0,58.2,191.6Z" opacity="0.41" fill="url(#linear-gradient-4)"></path><path d="M78.4,185.82v-30.6H71.73v30.87A8.91,8.91,0,0,0,78.4,185.82Z" fill="#a83f1e"></path><path d="M75.74,155.3v31.34a6.71,6.71,0,0,0,2.66-.74V155.3Z" fill="#7f2b14"></path><path d="M84.34,158.08c4.14-.2,9.45-1.69,7.9-6.31-.92-2.73-3.74-5.13-5.55-7.3s-1.41-3.61-3.42-5.73c1.72.07,4.21-.25,4.63-2,.37-1.49-7.64-10.62-11.1-14.33a2.22,2.22,0,0,0-3-.22c-4.13,3.29-14.66,12-13.19,14.55.89,1.52,2.68,2,4.29,2.19-3.79,3.8-8.11,8.55-8.55,13.61-.38,4.39,4.11,5,8.29,4.75-2.89,3.51-10.74,13.52-8.95,16.56.94,1.6,4,2.13,5.79,2.49a57.52,57.52,0,0,0,11.87,1.14,36.56,36.56,0,0,0,11.8-1.78,16.53,16.53,0,0,0,5.76-3.17c1.84-1.73.81-3.57-.38-5.31C88.42,164.24,86.38,161.16,84.34,158.08Z" fill="#77c457"></path><path d="M83.27,138.74s-5-.33-8.56-.24L92.5,153.14s.47-1.7-2.67-5.18A71.6,71.6,0,0,1,83.27,138.74Z" fill="#0d5b23"></path><path d="M84.34,158.08H74L90.89,172.6a2.57,2.57,0,0,0,.74-3.34C90.51,167.28,84.34,158.08,84.34,158.08Z" fill="#0d5b23"></path><path d="M169.5,239.47v0c1.09,0,2.61,1.15,3.6,1.64l2.72,1.33s1.82,6.75,2.85,9.22,4.76,7.87,3.47,9.89a6,6,0,0,1-8,1.61c-3.42-1.87-3.32-8.13-4.57-10.57-1-2-.54-6.29-.54-7.21A23.68,23.68,0,0,1,169.5,239.47Z" fill="#181816"></path><path d="M197.63,227.22v0c1.09,0,2.61,1.15,3.6,1.64l2.72,1.33s.94,7.35,2.85,9.22,9.16,5.82,7.86,7.84A5.84,5.84,0,0,1,206.8,249c-3.42-1.87-5.66-5.73-8.11-6.71-2.1-.84-1.21-6.29-1.29-8.11A25.82,25.82,0,0,1,197.63,227.22Z" fill="#181816"></path><path d="M202.52,158.47s4.66,24.84,4.24,38.47-.66,30.31-1.7,37.7c0,0-9,1.26-12.09-1.45,0,0-.91-47.76-1-47.48-1.38,6.28-7.87,38.47-8.56,40.57s-4,19.07-4,19.07a16.35,16.35,0,0,1-12.85-2.16s1.13-24.44,3.22-31.3,9.39-50,12.93-53.41" fill="#ada2ff"></path><path d="M202.52,158.47s4.66,24.84,4.24,38.47-.66,30.31-1.7,37.7c0,0-9,1.26-12.09-1.45,0,0-.91-47.76-1-47.48-1.38,6.28-7.87,38.47-8.56,40.57s-4,19.07-4,19.07a16.35,16.35,0,0,1-12.85-2.16s1.13-24.44,3.22-31.3,9.39-50,12.93-53.41" fill="#181816" opacity="0.67"></path><path d="M183,160.46s-8-23.23-4.76-28.54,16.16-9.5,22.37-9,2.22,37.23,1.24,37.5S191.67,167,183,160.46Z" fill="#f7931e"></path><path d="M180.32,129.53l9.69-4q2.64,12.78,5.47,25.51l-13.54,2.38s-8.06-4.44-9.3-11.47S180,129.86,180.32,129.53Z" fill="#f7931e"></path><path d="M199.86,136.95s1.29-12.69,1.29-13.81a30.26,30.26,0,0,1,10.38,5.3,34.2,34.2,0,0,1,4.38,4.05,10.91,10.91,0,0,1,2.26,3,8,8,0,0,1,.11,4.12,31.94,31.94,0,0,1-3.18,9,48.09,48.09,0,0,1-5.82,9.27c-.71.87-3,4.11-4.49,3.59-3-1-4.23-4.53-4.23-4.53s1.38-2.72,2.87-6.08c.88-2,4.85-6.51,5.39-9.6a15.55,15.55,0,0,0-1.28-1.51C205.59,137.87,202.31,138.23,199.86,136.95Z" fill="#f7931e"></path><path d="M198.73,123.86l-2,10L194,130.63l-2.09,4-5.6-7.6S194.94,123,198.73,123.86Z" fill="#ed6b00"></path><path d="M188,119.4c1.45,1.61,4.25.88,6.09.47,2.23-.5,4.8-1.86,4.6-4.53,0-.4.59-.4.62,0,.2,2.77-2.32,4.44-4.71,5-2.13.53-5.35,1.33-7-.55C187.24,119.54,187.68,119.1,188,119.4Z" fill="#009245"></path><path d="M199.86,113.66s0,13.57-5,14.45c-5.47,1-8.54-5.24-8.54-5.24s-.7-12,4.73-13S199.71,111.93,199.86,113.66Z" fill="#fbb5ad"></path><path d="M190.2,121.52s-1.32-5.21-2.77-3.49,2.36,5.46,2.36,5.46" fill="#fbb5ad"></path><path d="M188.88,108.14s-4.86.52-6.27,4.39,2.22,11.56,4.82,12.76l-3.15-6.75.16-4.6Z" fill="#5c2e2e"></path><path d="M184.17,121.16a13.67,13.67,0,0,0,3.26,4.14c-.33-1.71-.53-3.33.33-4.8a.38.38,0,0,1,.61-.06,3,3,0,0,1,1.56.09c.22-.56.41-1,.48-1.13,1,0,2.41-.58,2.54-1.6.16-1.24,1.34.24,3.83-.33,1.44-.33,1.22-1.27.77-2a4.5,4.5,0,0,0,2,1c1.47.26,3.2-.28,3.55-1.91a3.24,3.24,0,0,0-1.83-3.47,3.54,3.54,0,0,0-1.93-.35,5.94,5.94,0,0,0-2-1.88,10.32,10.32,0,0,0-7.16-1.09,1.92,1.92,0,0,0,.09-1.63.36.36,0,0,0-.59-.16,5.27,5.27,0,0,0-1.1,1.49,2.22,2.22,0,0,0-1.6-.78.36.36,0,0,0-.31.53,3.88,3.88,0,0,0,1.06,1.37l-.58.31c-2.35,1.38-4.14,2.7-4.54,5.41A12.2,12.2,0,0,0,184.17,121.16Zm5.32-13.56c0-.11.09-.22.13-.34a.36.36,0,0,0,0-.11l.1-.15A1.3,1.3,0,0,1,189.49,107.6Z" fill="#5c2e2e"></path><polygon points="196.04 132.99 194.58 135.85 192.53 133.48 194.01 130.63 196.04 132.99" fill="#723100"></polygon><path d="M194.58,135.85s-2.06,14.4-3.88,23.78l2.65,5,3.43-4.25S198.17,150.57,194.58,135.85Z" fill="#723100"></path><polygon points="194.28 160.44 196.22 139.46 210.65 139.79 208.63 160.44 194.28 160.44" fill="#ada2ff"></polygon><path d="M189.36,152.17l6.25-4.69v1.76s5.68-2.54,6-1.43-.74,4.81-1.7,5.15-5,1.62-5,1.62l-3.17,1Z" fill="#fbb5ad"></path><path d="M172.6,139.46s-4.08,15.77-1.28,19,21-.27,21.21-1.9-2.33-6.94-2.33-6.94L180,150.73" fill="#f7931e"></path><path d="M203.67,160.43s-3.8-.64-4.57,1.47c-.41,1.12,2.53,0,2.53,0l2.08,6.19a4.49,4.49,0,0,0,1-2.75,21.17,21.17,0,0,0-.39-4.22Z" fill="#fbb5ad"></path><polyline points="280.62 217.12 239.43 245.82 231.19 237.25 278.36 212.56" fill="url(#linear-gradient-5)"></polyline><polyline points="287.9 175.63 283.71 173.44 282.85 175.35 285.61 176.77" fill="#700531"></polyline><path d="M246.94,216.88v16.59a2.08,2.08,0,0,0,2.29,1.22c1.84-.15,2.22-1,2.22-1V215.2" fill="#e7e0e8"></path><path d="M276.11,200.29v16.59a2.08,2.08,0,0,0,2.29,1.22c1.84-.15,2.22-1,2.22-1V198.61" fill="#e7e0e8"></path><path d="M233.14,202.23v14.13a3.85,3.85,0,0,0,5.79,3.33l44.76-25.95a3.85,3.85,0,0,0,1.92-3.33V176.77a3.85,3.85,0,0,0-5.76-3.35l-44.76,25.46A3.85,3.85,0,0,0,233.14,202.23Z" fill="#700531"></path><polygon points="235.45 219.88 240.21 222.35 240 219.46 236.72 218.91 235.45 219.88" fill="#700531"></polygon><path d="M237.85,204.67V218.8a3.85,3.85,0,0,0,5.79,3.33l44.76-25.95a3.85,3.85,0,0,0,1.92-3.33V179.21a3.85,3.85,0,0,0-5.76-3.35L239.8,201.32A3.85,3.85,0,0,0,237.85,204.67Z" fill="#cd1155"></path><path d="M251.87,200.57c2.1-1.19,3-.31,3-.27l-1.37,2.43a1.22,1.22,0,0,0-1.42,0,1.85,1.85,0,0,0-.93,1.39c0,1.37,4-1.62,4,1.93a6.65,6.65,0,0,1-3.49,5.29c-2.28,1.29-3.39.27-3.45.22l1.37-2.43a1.54,1.54,0,0,0,1.85,0,2.2,2.2,0,0,0,1.12-1.71c0-1.38-4,1.62-4-1.93A6.54,6.54,0,0,1,251.87,200.57Z" fill="#fff"></path><path d="M261.46,195.45l3.22,8.28-2.54,1.43-.6-1.83-2.84,1.61-.64,2.53-2.54,1.43,3.34-12Zm-2.14,7,1.61-.91-.78-2.52-.82,3.42" fill="#fff"></path><polygon points="268.08 191.71 268.03 199.37 271.87 197.21 271.85 199.67 265.67 203.16 265.73 193.03 268.08 191.71" fill="#fff"></polygon><polygon points="279.84 185.06 279.83 187.38 275.49 189.83 275.48 191.42 278.83 189.53 278.81 191.7 275.47 193.59 275.46 195.33 279.91 192.81 279.9 195.13 273.1 198.97 273.16 188.84 279.84 185.06" fill="#fff"></polygon></svg>