<svg id="Layer_1" data-name="Layer 1" xmlns="http://www.w3.org/2000/svg" xmlns:xlink="http://www.w3.org/1999/xlink" viewBox="0 0 400 300" width="406" height="306" class="illustration styles_illustrationTablet__1DWOa"><defs><linearGradient id="linear-gradient" x1="251.41" y1="161.63" x2="194.33" y2="208.09" gradientUnits="userSpaceOnUse"><stop offset="0" stop-color="#eeaf7d"></stop><stop offset="1" stop-color="#fdf2d6"></stop></linearGradient><linearGradient id="linear-gradient-2" x1="199.86" y1="223.36" x2="143.76" y2="269.02" xlink:href="#linear-gradient"></linearGradient><linearGradient id="linear-gradient-3" x1="172.01" y1="153.49" x2="113.56" y2="201.07" xlink:href="#linear-gradient"></linearGradient><linearGradient id="linear-gradient-4" x1="143.21" y1="214.49" x2="103.24" y2="247.03" xlink:href="#linear-gradient"></linearGradient></defs><title>18_Search Engine_isometric</title><path d="M323.21,188.1,170.54,276.44a23.88,23.88,0,0,1-23.86,0L61.81,227.73a9.53,9.53,0,0,1-.07-16.49L220.86,118a9.53,9.53,0,0,1,9.59,0l92.75,53.59A9.53,9.53,0,0,1,323.21,188.1Z" fill="#fdf2d6"></path><path d="M243,183.85l-47.86,31.82C176,204.34,178,206.12,178,206.12l35.34-20s9.88,2,10.18.38,4.9-7.07,4.9-7.07l11.78-1Z" fill="url(#linear-gradient)"></path><path d="M196.7,249.43l-43.77,30.23c-19.08-11.34-29.36-17.7-29.36-17.7l32.93-8.58Z" fill="url(#linear-gradient-2)"></path><path d="M147.95,161,92.41,193.27s5.23,9.27,24.31,20.61L169,181" fill="url(#linear-gradient-3)"></path><path d="M98.92,181.93l-4.51-1.85s1.85-1.7,1.85-1.7Z" fill="#6c8fc1"></path><polygon points="225.54 16.53 220.87 14.66 221.65 17.14 224.61 17.28 225.54 16.53" fill="#6c8fc1"></polygon><path d="M92.54,95l-.13,81.76A3.69,3.69,0,0,0,97.9,180l120.4-67.39a8,8,0,0,0,4.1-6.79l2.2-86.31a4.88,4.88,0,0,0-7.38-4.32l-120,71.49A9.7,9.7,0,0,0,92.54,95Z" fill="#68e1fd"></path><path d="M92.54,95l-.13,81.76A3.69,3.69,0,0,0,97.9,180l120.4-67.39a8,8,0,0,0,4.1-6.79l2.2-86.31a4.88,4.88,0,0,0-7.38-4.32l-120,71.49A9.7,9.7,0,0,0,92.54,95Z" opacity="0.1"></path><path d="M184.85,122.49,171.72,141.7S169.9,147,176,151s21.5,12.13,21.5,12.13L166.72,182.4,143.15,169s-10.49-3.89,1.38-25.58" fill="#68e1fd"></path><path d="M184.85,122.49,171.72,141.7S169.9,147,176,151s21.5,12.13,21.5,12.13L166.72,182.4,143.15,169s-10.49-3.89,1.38-25.58" fill="#68e1fd"></path><path d="M184.85,122.49,171.72,141.7S169.9,147,176,151s21.5,12.13,21.5,12.13L166.72,182.4,143.15,169s-10.49-3.89,1.38-25.58" opacity="0.3"></path><path d="M96.38,96.62l-.13,81.76a3.69,3.69,0,0,0,5.5,3.23l120.4-67.39a8,8,0,0,0,4.1-6.79l2.2-86.31a4.88,4.88,0,0,0-7.38-4.32l-120,71.49A9.7,9.7,0,0,0,96.38,96.62Z" fill="#68e1fd"></path><polygon points="102.48 94.67 102.48 163.41 223.34 92.36 223.34 23.42 102.48 94.67" fill="#fff"></polygon><polygon points="120.25 132 130.16 129.15 130.66 139.23 126.58 135.48 123.24 144.08 117.6 141.14 124.36 134.32 120.25 132" fill="#a1c3fc"></polygon><path d="M128.59,121.38v.31a3.88,3.88,0,0,0,5.87,3.33l58.78-35.13a3.88,3.88,0,0,0,1.89-3.33h0a3.88,3.88,0,0,0-5.86-3.34L130.5,118A3.88,3.88,0,0,0,128.59,121.38Z" fill="#fdf2d6"></path><path d="M184.46,78a7.94,7.94,0,0,1-.8,1.49c-.19.27-.45.51-.62.79l-.24.25q0,.58-.09.12a7.08,7.08,0,0,1-.47-1.8l-.52-2a.84.84,0,0,0-1.23-.5,6.68,6.68,0,0,0-2.23,3l0,0a34.39,34.39,0,0,0,.73-3.84c.22-1.64.35-3.28.46-4.93.08-1.27.47-3.16-.94-3.88s-2.31.54-2.71,1.65a14.19,14.19,0,0,0-.48,4.87,26.3,26.3,0,0,0,.61,5.16q.16.73.36,1.44v0q-.06.39-.13.78a19.76,19.76,0,0,1-1.49,3.44.78.78,0,0,0,0,.76,2.56,2.56,0,0,1-1.06,1c-1.26.55-1.18-1.17-1.16-1.94a5.91,5.91,0,0,1,.39-2.17l.39-.68c.56-1-.82-1.69-1.45-.85a4.08,4.08,0,0,0-.42.72l-2.6,4.49c-.17.3-.45,1.08-.73,1.26s-.25.34-.45-.22a18.26,18.26,0,0,1-.54-2.87c-.17-.94-1.68-.71-1.65.22a6.43,6.43,0,0,1-.61,3,1.57,1.57,0,0,1-.14-.34.8.8,0,0,0-.93-.58.81.81,0,0,0-1.4.34,18.5,18.5,0,0,1-1.74,5.29c-.62,1-1.12.23-1.37-.56a15.31,15.31,0,0,1-.52-2.79.87.87,0,0,0-.45-.67.75.75,0,0,0-1-.64,5,5,0,0,0-3.2,3.47,8,8,0,0,0-.26,2.4A12.11,12.11,0,0,1,152.1,96c-.76,1.08-2.4,3.39-3.8,2a2.18,2.18,0,0,1-.57-1.12,3.92,3.92,0,0,0,2.2-1.46c.73-1,1.16-2.6.33-3.65a2,2,0,0,0-3,0,5.29,5.29,0,0,0-1.19,3.13.77.77,0,0,0-.44.26,13.39,13.39,0,0,1-2.84,2.32,29.29,29.29,0,0,0-1.64-4c-.84-1.74-1.89-3.76-1.25-5.73.49-1.5,3.09-4.21,4.49-2.13,1.26,1.88-.6,4-1.79,5.37-.71.81.47,2,1.19,1.19,1.86-2.11,4.1-5.53,1.53-8.07s-6.21.59-7,3.19c-1.16,3.68,1.83,7.21,2.86,10.55l.17.53h0a27,27,0,0,0-4.45,2.62,3,3,0,0,0-1,3.77,3.75,3.75,0,0,0,3.77,1.68,4.58,4.58,0,0,0,3.47-2.53,7.38,7.38,0,0,0,.12-4.73,17.14,17.14,0,0,0,2.82-2.07,3.91,3.91,0,0,0,1.27,2.32,2.92,2.92,0,0,0,3.57.28,10.61,10.61,0,0,0,3.58-4.33l.19.21c1.25,1.26,2.71.07,3.24-1.22a10.29,10.29,0,0,0,.42-1.25,1.94,1.94,0,0,0,2,.69c1.1-.2,1.69-1.25,2.08-2.2a29.41,29.41,0,0,0,1.18-3.49,2.94,2.94,0,0,0,1,.79.86.86,0,0,0,1.15-.3,8.29,8.29,0,0,0,.54-1c.48,1,1.22,1.66,2.41.9,1-.61,1.49-2.14,2-3.07l0,0a2.51,2.51,0,0,0,1.94,2.26c2.45.46,3.89-2.26,4.63-4.72l.32,1.63c.18.93,1.67.71,1.65-.22,0-1.86.06-4.08,1.2-5.63q.29,1.11.58,2.21c.21.78.49,1.61,1.44,1.62,1.74,0,3.07-2.73,3.61-4.07C186.48,77.47,184.86,77,184.46,78Zm-43.11,25.54a2.93,2.93,0,0,1-2.11,1.2c-.82.06-2-.4-2-1.38s1.38-1.65,2.13-2.08,1.61-.89,2.41-1.32A4.51,4.51,0,0,1,141.35,103.56Zm6.86-10.32c.28-.46.73-.75.81,0a1.77,1.77,0,0,1-.36,1.09,2.22,2.22,0,0,1-.93.78A4.74,4.74,0,0,1,148.21,93.24ZM157,91.4c-.06.42-.66,3.37-1.26,2.67a1.87,1.87,0,0,1-.32-1c.1-.35.2-.69.27-1a.8.8,0,0,0-.17-.72c0-.19.07-.36.11-.49a3.43,3.43,0,0,1,1.43-2A11.42,11.42,0,0,1,157,91.4ZM177.11,70c0-.18.27-1.79.62-1.73s.06,1.44.05,1.61c-.13,2.07-.28,4.16-.6,6.21-.1-.75-.18-1.51-.21-2.27A22.23,22.23,0,0,1,177.11,70Z" fill="#68e1fd"></path><path d="M180.57,105.82a18.67,18.67,0,0,1-3.71-.37,19.74,19.74,0,0,1-13.27-9.92,26.2,26.2,0,0,1,6.65-32.86,19.35,19.35,0,0,1,29.35,5.94,25.44,25.44,0,0,1,2.62,17.63C199.88,97.73,190.6,105.82,180.57,105.82Zm2-43.36a16.12,16.12,0,0,0-9.83,3.5,22.06,22.06,0,0,0-5.57,27.53,15.66,15.66,0,0,0,10.49,7.91c9.13,1.85,18.32-5.31,20.47-16A21.3,21.3,0,0,0,196,70.66a15.66,15.66,0,0,0-10.49-7.91A14.67,14.67,0,0,0,182.59,62.46Z" fill="#68e1fd"></path><path d="M201,90.51l33.24,16.39s1.34,4.35-1.56,5.45-36.71-17.15-36.71-17.15" fill="#68e1fd"></path><g opacity="0.25"><path d="M180.57,105.82a18.67,18.67,0,0,1-3.71-.37,19.74,19.74,0,0,1-13.27-9.92,26.2,26.2,0,0,1,6.65-32.86,19.35,19.35,0,0,1,29.35,5.94,25.44,25.44,0,0,1,2.62,17.63C199.88,97.73,190.6,105.82,180.57,105.82Zm2-43.36a16.12,16.12,0,0,0-9.83,3.5,22.06,22.06,0,0,0-5.57,27.53,15.66,15.66,0,0,0,10.49,7.91c9.13,1.85,18.32-5.31,20.47-16A21.3,21.3,0,0,0,196,70.66a15.66,15.66,0,0,0-10.49-7.91A14.67,14.67,0,0,0,182.59,62.46Z"></path><path d="M201,90.51l33.24,16.39s1.34,4.35-1.56,5.45-36.71-17.15-36.71-17.15"></path></g><path d="M219.11,100.14q-3-1.5-5.82-3.17a23.29,23.29,0,0,0-1.13-2.14,3,3,0,0,0-3.06-1.62,1,1,0,0,0,.07,2l.16.19c-2.38.11-6.66.46-5.69,2.8a1.8,1.8,0,0,0-.24.23,1.5,1.5,0,0,0,.14,2.06,1.74,1.74,0,0,0,1.62.44,1.63,1.63,0,0,0,2.09.78l.58-.18a.92.92,0,0,0,1.11,1l2-.38c4.45,1.42,6.67,1.93,8.34,3.07.69.47,0,.65,0,0a.93.93,0,0,0-.21-1.34l-.19-.14a1,1,0,0,0,.16-1.38l-.24-.27A1.06,1.06,0,0,0,219.11,100.14Z" fill="#ff7d09"></path><path d="M241.91,168.54,243,183.85l-1.92,1.66-2.13-.55s.27-4.05-.47-4.94-2,3.51-2.75,3.49-9.4-2.34-9.53-3.4c-.17-1.42,1.78-3,5.46-2.14,4,1,4.68-3.52,5.31-7.82" fill="#f8997c"></path><path d="M235.68,171.61s3.78,1.61,10.28-2.55c0,0-2.25-20.31-2.05-23.81s4.1-28.75-.73-34.32-13.48,48-13.07,48.28" fill="#a1c3fc"></path><path d="M238.84,180.61l-.36-.59a2.14,2.14,0,0,0-2.11-.5c-1,.48-.89,4.12-.89,4.12l3.61-1.35A4,4,0,0,0,238.84,180.61Z" fill="#9e005d"></path><path d="M230.11,176.05l-.38,15.35-2.07,1.47-2.07-.75s.66-4,0-5-2.35,3.3-3.07,3.21-9.14-3.22-9.16-4.29c0-1.42,2.06-2.85,5.64-1.61,3.87,1.34,5-3.06,6-7.28" fill="#f8997c"></path><path d="M225.91,187.77l-.3-.62a2.14,2.14,0,0,0-2.05-.7c-1.09.38-1.28,4-1.28,4l3.73-1A4,4,0,0,0,225.91,187.77Z" fill="#9e005d"></path><path d="M228.86,116.92s-6.42,17.32-7.88,24.83-1.51,35.63-1,36.39,6.77,2.09,11,2,3.63-33.25,3.63-33.25,11.47-29.06,8.4-32.26S228.86,116.92,228.86,116.92Z" fill="#a1c3fc"></path><path d="M228.6,117.24c5.83,1.84,13.23-.37,16.8-5.37-.67-8.2-2.08-21.75-4.18-23.78-3-2.94-9.63,1.24-12,5.33-1.23,2.12-3.55,9.65-3.55,9.65l-9-5.12-2.73,6.38s6.15,11.59,14.47,8.95Z" fill="#f8997c"></path><path d="M234.21,102.2a.34.34,0,0,0-.69,0c0,2.61-.08,5.39-1.34,7.74a6.49,6.49,0,0,1-5.16,3.65c-.44,0-.44.71,0,.69a7.11,7.11,0,0,0,5.61-3.73C234.09,108,234.23,105,234.21,102.2Z" fill="#fff"></path><path d="M231.07,73.18c-.47.1-1.23.85-2.37,3.53s1.59,6.09,2.77,6.8,2.9,3.5,2.9,3.5,4.35,1.05,7.28-4.28S238.13,71.64,231.07,73.18Z" fill="#ffb468"></path><path d="M229.84,76.16s-2.19,8.91,1,10.95,7.59-3.37,8-5.53S236.94,74.75,229.84,76.16Z" fill="#ff7d09"></path><path d="M229.84,76.16s-.54,5.82,2.47,7.1,3.08,3.11,3.08,3.11,5.51-2.95,6.09-5.56S234.06,73.83,229.84,76.16Z" fill="#ffb468"></path><path d="M240,83.16c-1.1,8.73,1.11,19.9-2.52,28.09-.22.5-.7,2.78-1.08,2.77l8.8-4.8c3.53-2.19,6.1-3.6,4.84-9.14s-8.36-17.34-8.36-17.34Z" fill="#ffb468"></path><path d="M226.54,98.71a67.25,67.25,0,0,0-1.3,7c-.06.44.63.43.69,0a65.54,65.54,0,0,1,1.28-6.84C227.31,98.46,226.65,98.28,226.54,98.71Z" fill="#fff"></path><path d="M238.94,87.1l-.82-1.77a39.05,39.05,0,0,1-5,2.16c-2.07.63-1.49,3-1.49,3S236.4,90.52,238.94,87.1Z" fill="#5fad00"></path><path d="M189.47,216.43a12.27,12.27,0,0,0-9.82-2.28c-3.86.85-7.19,3.27-11.12,3.87-.62.09-3.1-.07-3.48.29-10.93,10.35,19.63,9.24,19.63,9.24,3-2.43,5.76-4.82,8.7-7.27C192.5,218.28,191,217.49,189.47,216.43Z" fill="#f8997c"></path><path d="M175.09,231.43,174,262.64c0,1.18,1.8,1.18,1.84,0l1.09-31.22C177,230.24,175.13,230.24,175.09,231.43Z" fill="#f8997c"></path><path d="M198,248.13q-8.35-8.17-16-17.05c-.77-.9-2.07.41-1.3,1.3q7.6,8.87,16,17.05C197.55,250.26,198.85,249,198,248.13Z" fill="#f8997c"></path><path d="M168.71,228.54q-6.48,12.23-12.21,24.84c-.49,1.07,1.1,2,1.59.93q5.73-12.6,12.21-24.84C170.85,228.42,169.26,227.49,168.71,228.54Z" fill="#f8997c"></path><path d="M192.88,219.34a14.8,14.8,0,0,1-7.4,5.35c-4.18,1.25-10.25.66-12.45-3.64-4-7.83-.24-17.63-4.46-25.24a7.72,7.72,0,0,0-4.89-4c-2.73-.59-4.61,1.43-5.6,3.81-1.78,4.27-1.72,9.59-1.63,14.13a76.06,76.06,0,0,0,.81,11s2.55,15.26,22.48,11.16a30.24,30.24,0,0,0,9.79-3.57,13.43,13.43,0,0,0,4-3.46C194.73,223.18,193.93,221.1,192.88,219.34Z" fill="#68e1fd"></path><polyline points="278.42 41.06 282.32 40.16 325.51 65.03 324.8 150.09 323.18 151" fill="#dd654a"></polyline><polygon points="278.42 41.06 277.92 125 323.18 151 323.18 66.37 278.42 41.06" fill="#f8997c"></polygon><polygon points="280.01 45.61 280.01 123.81 321.13 146.58 321.13 68.85 280.01 45.61" fill="#fdf2d6"></polygon><polyline points="293.96 66.95 293.96 78.8 286.13 75.05 286.13 65.03" fill="#f8997c"></polyline><path d="M285.54,62.17,294,66.95s.43,7.9-1.81,10.14l-7.66-3.78S287.13,67.45,285.54,62.17Z" fill="#fff"></path><polyline points="314.42 81.25 314.42 96.52 304.33 91.68 304.33 78.78" fill="#f8997c"></polyline><path d="M303.58,75.09l10.84,6.16s.56,10.17-2.34,13.07l-9.87-4.87S305.62,81.9,303.58,75.09Z" fill="#5fad00"></path><polyline points="293.12 82.39 293.12 94.25 285.28 90.49 285.28 80.47" fill="#f8997c"></polyline><path d="M284.7,77.61l8.42,4.78s.43,7.9-1.81,10.14l-7.66-3.78S286.28,82.89,284.7,77.61Z" fill="#a1c3fc"></path><polyline points="292.66 97.69 292.66 109.55 284.83 105.79 284.83 95.77" fill="#f8997c"></polyline><path d="M284.25,92.91l8.42,4.78s.43,7.9-1.81,10.14L283.19,104S285.83,98.19,284.25,92.91Z" fill="#a1c3fc"></path><polygon points="298.61 97.33 314.96 106.45 314.96 113.47 298.61 104.56 298.61 97.33" fill="#a1c3fc"></polygon><path d="M121,224.48,89.2,242.41s1.91,2.4,21,13.73l30.43-23.49" fill="url(#linear-gradient-4)"></path><polyline points="119.88 215.68 119.88 229.41 142.09 229.41 142.09 215.68" fill="#f8997c"></polyline><ellipse cx="130.99" cy="215.68" rx="11.11" ry="5.46" fill="#dd654a"></ellipse><ellipse cx="130.99" cy="229.94" rx="11.11" ry="5.46" fill="#f8997c"></ellipse><path d="M143.42,183.76c-2.34-1-5.59-4.15-8.43-4.05a33.19,33.19,0,0,0-1.72,8.43A76.47,76.47,0,0,0,133,202.2q.1,1.57.26,3.13a2.49,2.49,0,0,0,.25.88q0,5.43,0,10.87a.35.35,0,0,0,.69,0q0-5.23,0-10.45a15.41,15.41,0,0,0,3.18-1.47,10.82,10.82,0,0,0,4.47-5.62c1.79-5,.66-10.56,2.36-15.5C143.92,183.95,143.67,183.86,143.42,183.76Z" fill="#297600"></path><path d="M138.62,175.58a8.7,8.7,0,0,0-3.17,3.24,5.44,5.44,0,0,0-.5,1l-.1.21h0a14.52,14.52,0,0,0-.53,1.72,2.15,2.15,0,0,1,1.18-.93,2.94,2.94,0,0,1,1.85-.17,7.77,7.77,0,0,1,1.7.91c.79.48,1.55,1,2.34,1.51,3.68,2.34,8.58,2.58,11.42-.83,0-.13.07-.27.1-.41C153.33,179.47,146.76,170.85,138.62,175.58Z" fill="#5fad00"></path><path d="M151.18,183.66l.46-.3a.31.31,0,0,0-.09-.26c-2.22-2.28-4.61-4.52-7.65-5.65a13.11,13.11,0,0,0-6.83-.67c-.25.29-.47.59-.69.89a11.87,11.87,0,0,1,7.86.65,22,22,0,0,1,6.84,5.26A.33.33,0,0,0,151.18,183.66Z" fill="#297600"></path><path d="M113.9,188.63a9.27,9.27,0,0,0-5,8.9c.26,6.55,11.06.16,13.93-5.37s3.32,2.36,3.32,2.36" fill="#297600"></path><path d="M123.62,186.34a19.55,19.55,0,0,0-6,.83,14.54,14.54,0,0,0-3.73,1.46,12,12,0,0,0,2.16,1.15,6.56,6.56,0,0,1,3.49,2.5,5,5,0,0,1,.42,1c.66,2.16.09,4.77,1,6.94s2.7,4.08,5.25,4.24c3,.19,4.44-2.74,5-5.27s1.42-6,.46-8.58C130.56,187.57,126.49,186.48,123.62,186.34Z" fill="#5fad00"></path><path d="M127.62,196.57c-1.28-4.14-4-8-7.95-9.88h-.15l-.19.06-.72.19c4.61,1.71,7.51,6.26,8.7,10.91,1.51,5.95,1,12.39,1,18.47a.32.32,0,0,0,.64,0C129,209.83,129.56,202.86,127.62,196.57Z" fill="#297600"></path></svg>