<svg xmlns="http://www.w3.org/2000/svg" data-name="Layer 1" width="846.83085" height="588.64944" viewBox="0 0 846.83085 588.64944" xmlns:xlink="http://www.w3.org/1999/xlink"><path d="M763.10191,705.75471l29,16.84-28.58985-6.9c.22022,2.36.52,4.68.91993,6.95.11035.63.23,1.25.36035,1.87a51.87781,51.87781,0,0,0,5.25,14.92c.48.86.96,1.7,1.46,2.51.48.82.98,1.61,1.48974,2.38h76.87012c.64014-.77,1.25-1.57,1.81006-2.38a35.97564,35.97564,0,0,0,6.17969-26.62,44.96785,44.96785,0,0,0-1.19971-5.63,51.56839,51.56839,0,0,0-1.83008-5.57,73.44068,73.44068,0,0,0-4.41015-9.35c-3.52-6.34-9.00977-12.06-15.48-17.14a108.0709,108.0709,0,0,0-9.77979-6.8q-.96021-.615-1.95019-1.2c-1.00977-.6-2.02-1.19-3.04-1.76-2.02979-1.16-4.07959-2.26-6.12989-3.3-.54-.28-1.06982-.55-1.60009-.81-4.44971-2.22-8.87989-4.21-13.09961-5.96-.53028-.22-1.07032-.44-1.6001-.65a233.30757,233.30757,0,0,0-25.72022-8.81s-.02978.08-.08007.25c-.12989.46-.46,1.57-.90967,3.21-1.25,4.55-3.4502,13.23-5.22022,23.71-.10009.57-.18994,1.15-.29,1.73005a181.68912,181.68912,0,0,0-2.4497,26.81c-.01026.56-.01026,1.11-.01026,1.67Z" transform="translate(-176.58458 -155.67528)" fill="#f2f2f2"/><path d="M769.89195,647.32472c.01025.03.11035.52.34033,1.42005.18994.75.44971,1.78.79,3.06,1.16992,4.47,3.25,11.96,6.21,20.98.16992.52.3501,1.06.52978,1.6,2.06006,6.17,4.51026,12.99,7.33985,20,.71045,1.76,1.42041,3.49,2.15039,5.18.21973.53.43994,1.05005.66992,1.56q4.65015,10.77007,9.56982,19.71l.83008,1.49a134.52429,134.52429,0,0,0,13.18994,19.62c.66993.82,1.3501,1.61,2.04,2.38h2.32032c-.7002-.77-1.40039-1.57-2.08008-2.38a132.14581,132.14581,0,0,1-13.87012-20.4c-.28027-.49-.56006-.98-.83008-1.48-3.52978-6.41-6.74023-13.11-9.60986-19.75-.23-.51-.4502-1.03-.66992-1.56-3.75-8.78-6.90039-17.41-9.43994-25.00994-.18018-.54-.36036-1.08-.53028-1.61005-3.70019-11.22-6.02-20.02-6.91015-23.54-.11963-.52-.21973-.93-.29-1.21-.06983-.26-.09961-.41-.10987-.44l-.81.19h-.00977Z" transform="translate(-176.58458 -155.67528)" fill="#fff"/><path d="M764.0023,677.36476c.5-.03,1.00976-.07,1.50976-.12a46.89079,46.89079,0,0,0,12.25-2.86005c.54-.2,1.08008-.42,1.61036-.63995a48.30681,48.30681,0,0,0,4.56982-2.24006,46.76551,46.76551,0,0,0,15.39014-13.7c.12988-.17.25-.34.36963-.51q-.81006-.33-1.58985-.66c-.12012.17-.25.35-.37988.52a45.27618,45.27618,0,0,1-14.60986,12.87,45.85941,45.85941,0,0,1-4.28028,2.11c-.54.23-1.08008.44-1.60986.65a44.99648,44.99648,0,0,1-11.43018,2.73c-.50976.05-1.02.1-1.52978.13C764.182,676.20473,764.09214,676.77473,764.0023,677.36476Z" transform="translate(-176.58458 -155.67528)" fill="#fff"/><path d="M761.742,703.91475c0,.57.01026,1.13.01026,1.7.44971.05.8999.1,1.34961.13995a47.05043,47.05043,0,0,0,24.82031-4.63q.78-.38992,1.56006-.81c.21-.1.41992-.22.61963-.32995a47.22568,47.22568,0,0,0,23.93017-35.41c.03028-.17.0503-.32995.06983-.5-.52979-.28-1.06983-.55-1.60987-.82995-.02.17-.04.35-.06.51995a45.58026,45.58026,0,0,1-23.14991,34.74,4.23171,4.23171,0,0,1-.46972.25q-.76539.43506-1.56006.81a45.37037,45.37037,0,0,1-24.18994,4.49C762.62242,704.01472,762.182,703.96474,761.742,703.91475Z" transform="translate(-176.58458 -155.67528)" fill="#fff"/><path d="M763.28208,722.25471c.12012.64.25,1.28.39991,1.92.37011.12.74023.24,1.11035.34a47.17478,47.17478,0,0,0,33.52978-2.19c.52979-.25,1.06983-.51,1.6001-.78.56006-.28,1.12012-.58,1.67969-.89a47.25281,47.25281,0,0,0,24.28027-40.03,46.77057,46.77057,0,0,0-.73-9.79c-.02-.15-.05029-.29-.08008-.44-.6499-.42-1.31006-.83-1.97021-1.24.04.16.07031.32.1001.48a43.76335,43.76335,0,0,1,.96,7.16,45.67468,45.67468,0,0,1-23.38965,42.39c-.55029.3-1.11035.6-1.68018.87994-.52978.27-1.06006.53-1.6001.77a44.46781,44.46781,0,0,1-5.31,2.02,45.54776,45.54776,0,0,1-27.75-.21C764.04234,722.52473,763.662,722.39473,763.28208,722.25471Z" transform="translate(-176.58458 -155.67528)" fill="#fff"/><rect x="826.36755" y="387.49402" width="56" height="56" transform="translate(1532.15053 675.31277) rotate(-180)" fill="#ffb8b8"/><polygon points="740.707 566.513 729.673 566.512 724.425 523.955 740.709 523.956 740.707 566.513" fill="#ffb8b8"/><path d="M884.98767,738.474a4.67909,4.67909,0,0,0,4.66992,4.66h20.75977l.41015-.85,3.16992-6.54,1.24024,6.54.15967.85h7.83008l-.06983-.85-2.12988-25.54-3.74024-.22-11.81982-.71-1.88037-.11v7.47l-16.57959,11.45A4.67074,4.67074,0,0,0,884.98767,738.474Z" transform="translate(-176.58458 -155.67528)" fill="#2f2e41"/><polygon points="676.18 559.507 665.576 562.557 648.768 523.109 664.418 518.608 676.18 559.507" fill="#ffb8b8"/><path d="M826.21765,739.764a4.69023,4.69023,0,0,0,5.77978,3.19l2.33008-.67005,12.89014-3.71,4.73975-1.36005,1.39013-8.09,3.39014,6.72,7.52-2.17-9.41016-24.75-3.6499.82-1.31006.29-10.25,2.30005-1.83984.41,2.06982,7.18-12.77,15.59A4.68188,4.68188,0,0,0,826.21765,739.764Z" transform="translate(-176.58458 -155.67528)" fill="#2f2e41"/><path d="M788.37829,612.43274a16.87388,16.87388,0,0,1,1.57032-15.08752L815.36755,465.494l10-50h60s37.5,41.5,29.5,94.5l2.23926,74.64014A27.44789,27.44789,0,0,1,918.61023,600.82l-.89112,4.22223.34375.63593a21.33412,21.33412,0,0,1,.26856,19.77215l-.18022,59.63805-18-1L876.36755,610.494l-17.5-88.5-29.5,68.5-1,16,.48535,14.10334,14.00247,56.7674-19.5,7.5Z" transform="translate(-176.58458 -155.67528)" fill="#2f2e41"/><path d="M1022.22474,744.32472H732.44955a1.19068,1.19068,0,0,1,0-2.38137h289.77519a1.19069,1.19069,0,0,1,0,2.38137Z" transform="translate(-176.58458 -155.67528)" fill="#ccc"/><circle cx="540.49416" cy="71.43496" r="29.89764" fill="#6c63ff"/><path d="M732.42642,214.64988a2.41794,2.41794,0,0,0-3.338,0,99.0304,99.0304,0,0,0-16.96581,17.32933q-1.81332-3.5084-3.62637-7.01687c-1.3953-2.69975-5.47029-.31482-4.07614,2.38262q2.65207,5.1317,5.30414,10.26329c.87745,1.69765,3.12157,1.35123,4.07624,0a95.59162,95.59162,0,0,1,18.626-19.62032A2.37459,2.37459,0,0,0,732.42642,214.64988Z" transform="translate(-176.58458 -155.67528)" fill="#fff"/><path d="M744.86176,248.37864a10.0238,10.0238,0,0,1-.97137,1.513l50.75213,37.26748L852.3574,305.888a15.08,15.08,0,0,1-7.26267,29.19654l-.00006,0a118.97111,118.97111,0,0,1-34.90078-11.9334l-36.12277-19.04149-43.701-52.04643a9.9971,9.9971,0,1,1,14.49166-3.6845Z" transform="translate(-176.58458 -155.67528)" fill="#ffb8b8"/><path d="M787.15868,311.25954l11.10184-24.39578,55.38854,11.25479a23.71606,23.71606,0,1,1-21.76467,42.14387Z" transform="translate(-176.58458 -155.67528)" fill="#2f2e41"/><path d="M844.0595,184.98086h-663.757a3.722,3.722,0,0,1-3.71791-3.71791V159.39319a3.722,3.722,0,0,1,3.71791-3.71791h663.757a3.722,3.722,0,0,1,3.71791,3.71791V181.263A3.722,3.722,0,0,1,844.0595,184.98086Z" transform="translate(-176.58458 -155.67528)" fill="#e4e4e4"/><circle id="ad599c04-66c9-410d-80c0-604c42a4d11a" data-name="Ellipse 90" cx="21.57664" cy="13.58607" r="5.27851" fill="#fff"/><circle id="f52afa94-cb03-49a4-8d27-0fbe607438cb" data-name="Ellipse 91" cx="41.61211" cy="13.58607" r="5.27851" fill="#fff"/><circle id="a2cda954-f7b9-49b4-9fc0-5c7c86ed3cc3" data-name="Ellipse 92" cx="61.64852" cy="13.58607" r="5.27851" fill="#fff"/><path d="M824.429,165.62823h-23.0716a1.709,1.709,0,1,1,0-3.418H824.429a1.709,1.709,0,1,1,0,3.418Z" transform="translate(-176.58458 -155.67528)" fill="#fff"/><path d="M824.429,172.037h-23.0716a1.709,1.709,0,0,1,0-3.418H824.429a1.709,1.709,0,1,1,0,3.418Z" transform="translate(-176.58458 -155.67528)" fill="#fff"/><path d="M824.429,178.44579h-23.0716a1.709,1.709,0,0,1,0-3.418H824.429a1.709,1.709,0,1,1,0,3.418Z" transform="translate(-176.58458 -155.67528)" fill="#fff"/><path d="M653.75444,458.784H370.60754a33.04039,33.04039,0,0,1-33.00252-33.0036V271.56516a33.03855,33.03855,0,0,1,33.00252-33.00144h283.1469A33.03854,33.03854,0,0,1,686.757,271.56516V425.78043A33.04039,33.04039,0,0,1,653.75444,458.784Z" transform="translate(-176.58458 -155.67528)" fill="#f2f2f2" style="isolation:isolate"/><path d="M580.90093,316.97984c2.27885-.99361-2.34265-1.572-7.586-1.76221s-11.5862-.17965-14.937-.72058c-3.24068-.52315-3.00191-1.45336-3.27451-2.29615s-1.51844-1.707-6.57519-1.8943c-6.30136-.23346-16.69268.66517-21.44951.12567-4.439-.50346-1.80036-2.08271-8.27319-2.14315-3.69619-.03451-8.4579.48614-12.57066.61179a45.82554,45.82554,0,0,1-8.7223-.45474c-2.00461-.32844-3.40083-.74482-5.65692-1.03491-5.92319-.76163-17.51177-.50562-27.855.47051s-19.20928,2.57582-24.20946,4.16024-6.38162,3.14439-5.21689,4.46725c.74375.84473,2.647,1.63459,7.26371,1.974,8.63531.63489,24.00973-.45794,32.93285.1197,4.97324.32194,7.17958,1.12014,11.54308,1.5569,4.68786.46923,11.55045.4941,18.293.483,14.03875-.02318,28.43659-.16741,43.118-.43193,6.13217-.11049,12.55747-.25413,19.08264-.78065s13.18056-1.54243,14.55721-2.49479" transform="translate(-176.58458 -155.67528)" fill="#e6e7e8"/><path d="M630.18277,299.39435c-.10871-.2789-.22689-.55542-.3498-.82487.19853.078.39709.16308.59325.25526Z" transform="translate(-176.58458 -155.67528)" fill="#ccc"/><path d="M523.702,333.0833c-1.81267-2.998-3.96063-6.199-7.32449-7.178-3.89559-1.13367-7.89734,1.11841-11.29174,3.34075a329.043,329.043,0,0,0-29.28267,21.5751l.01024.11638,21.85114-1.50688c5.2625-.36291,10.70578-.77588,15.35637-3.26537,1.76474-.94467,3.485-2.20655,5.48472-2.29448,2.48449-.10924,4.65081,1.62593,6.35324,3.43878,10.0704,10.72361,12.98457,27.12257,24.28255,36.54406A358.54636,358.54636,0,0,0,523.702,333.0833Z" transform="translate(-176.58458 -155.67528)" fill="#e6e7e8"/><path d="M585.60329,424.039c-1.11362-1.40621-1.56866-1.73554-2.66715-3.15476q-13.41648-17.35224-25.22082-35.8767-8.018-12.58113-15.24074-25.64542-3.43863-6.21093-6.68872-12.51936-2.522-4.8914-4.93143-9.84128c-.45937-.94254-.90573-1.8894-1.34987-2.83843-1.04654-2.23173-2.07362-4.47429-3.17645-6.67569-1.25667-2.50906-2.78639-5.13948-5.094-6.8252a6.95,6.95,0,0,0-3.6206-1.3932,10.099,10.099,0,0,0-5.2413,1.50154,168.7209,168.7209,0,0,0-33.17689,22.8785,172.72251,172.72251,0,0,0-26.9542,29.92036c-.23826.34018-.80163.01517-.56115-.32716q1.42034-2.00858,2.89694-3.97379a173.67713,173.67713,0,0,1,44.33988-41.35854q4.313-2.79507,8.78827-5.328c1.5037-.85152,3.014-1.69221,4.55013-2.48089a11.08612,11.08612,0,0,1,4.82531-1.495c5.85451-.091,8.88582,6.53919,10.968,11.00049q.98152,2.106,1.98687,4.19912,3.79933,7.94646,7.89121,15.74779,2.52534,4.81665,5.16122,9.577,8.20316,14.82368,17.43784,29.04718c8.1556,12.56052,16.24613,23.65635,25.537,35.40218C586.31837,423.90461,585.86122,424.36829,585.60329,424.039Z" transform="translate(-176.58458 -155.67528)" fill="#e4e4e4"/><path d="M478.61668,340.375c-.34014-.37918-.67816-.75836-1.02053-1.13754-2.69973-2.98576-5.59657-5.93684-9.30392-7.64856a13.49811,13.49811,0,0,0-5.65518-1.31087,16.13881,16.13881,0,0,0-5.87176,1.28054c-.884.35318-1.74862.754-2.60007,1.18086-.97292.48968-1.92848,1.01187-2.8796,1.53839q-2.67815,1.482-5.28679,3.09408-5.19048,3.20784-10.05583,6.90537-2.52216,1.91755-4.94021,3.96078-2.249,1.89805-4.40709,3.89795c-.30766.28384-.767-.17551-.45937-.45935.37917-.35318.76269-.70418,1.1462-1.05086q1.62506-1.469,3.30215-2.88176,3.05823-2.58057,6.27484-4.9618,5.00194-3.70512,10.34825-6.90753,2.67165-1.599,5.41683-3.06376c.55258-.29468,1.11161-.58285,1.6771-.85586a26.73419,26.73419,0,0,1,3.98676-1.62288,14.18276,14.18276,0,0,1,6.02135-.59152,15.67666,15.67666,0,0,1,5.55552,1.92189c3.64006,2.03456,6.46327,5.18065,9.21072,8.25091C479.35345,340.22552,478.89619,340.687,478.61668,340.375Z" transform="translate(-176.58458 -155.67528)" fill="#e4e4e4"/><path d="M553.20058,371.31538l8.72255-3.19031,4.33077-1.584a44.28984,44.28984,0,0,1,4.27562-1.47257,6.74518,6.74518,0,0,1,3.86995.04931,8.91945,8.91945,0,0,1,3.01846,1.87113,24.495,24.495,0,0,1,2.47578,2.644c.94289,1.13314,1.87185,2.27816,2.805,3.41934q5.77681,7.06484,11.47807,14.191,5.70113,7.126,11.326,14.31263,5.63865,7.20415,11.19974,14.46857.68124.88992,1.36132,1.78073c.25049.32807.8153.00463.56127-.32808q-5.60211-7.33746-11.28233-14.61485-5.69418-7.29478-11.467-14.52769-5.77276-7.23276-11.62354-14.40279-1.45759-1.78627-2.92-3.56861c-.8224-1.00231-1.63553-2.01543-2.53756-2.94834-1.65575-1.71242-3.7244-3.22574-6.20059-3.2668a11.96774,11.96774,0,0,0-4.21751.92718c-1.45822.52754-2.913,1.06495-4.36931,1.59762l-8.78354,3.21262-2.19589.80315c-.38969.14253-.22134.771.1728.6268Z" transform="translate(-176.58458 -155.67528)" fill="#e4e4e4"/><path d="M467.14437,335.34592a14.082,14.082,0,0,0-14.18243,1.01424,202.28472,202.28472,0,0,1,23.0139,5.37133C472.83645,339.89173,470.38069,337.00924,467.14437,335.34592Z" transform="translate(-176.58458 -155.67528)" fill="#e6e7e8"/><path d="M452.91831,336.35232l-.85333.69361c.28864-.24277.58871-.47038.897-.68577Z" transform="translate(-176.58458 -155.67528)" fill="#f2f2f2"/><path d="M577.0895,371.34725a7.26081,7.26081,0,0,0-3.07123-2.564l-1.199.04729a136.0064,136.0064,0,0,0,36.2253,41.414Q593.067,390.7959,577.0895,371.34725Z" transform="translate(-176.58458 -155.67528)" fill="#e6e7e8"/><circle cx="242.51064" cy="126.80796" r="12.05404" fill="#ccc"/><path d="M456.00181,281.85507c-3.19009-3.34649-6.895-6.39937-11.281-8.01262a18.13229,18.13229,0,0,0-3.77843-.94951c-.01038-.00143-.0202.00068-.03051-.00016a.55533.55533,0,0,0-.06374-.01251,14.54486,14.54486,0,0,0-5.39863.32593,14.91655,14.91655,0,0,0-2.51367.87566,21.98364,21.98364,0,0,0-2.35867,1.33672A15.34136,15.34136,0,0,1,425.365,277.363a17.53493,17.53493,0,0,1-2.79938.27475,6.76182,6.76182,0,0,0-2.355.339,5.65256,5.65256,0,0,0-3.44248,3.72742.36651.36651,0,0,0,.16293.40037c.20881.14955.41237.31923.63176.45247a1.97117,1.97117,0,0,0,.61711.16831q.52321.1104,1.04774.21435,1.93239.38287,3.88084.67784,3.94262.59685,7.92782.84085a88.41781,88.41781,0,0,0,24.809-2.01076A.35781.35781,0,0,0,456.00181,281.85507Z" transform="translate(-176.58458 -155.67528)" fill="#f0f0f0"/><path d="M419.66731,289.91451a18.13166,18.13166,0,0,0-3.77843-.94951c-.01038-.00143-.0202.00067-.03051-.00016a.55533.55533,0,0,0-.06374-.01251,14.54506,14.54506,0,0,0-5.39863.32592,14.9157,14.9157,0,0,0-2.51367.87567,21.98193,21.98193,0,0,0-2.35867,1.33672,15.34134,15.34134,0,0,1-5.21215,1.94443,17.53378,17.53378,0,0,1-2.79938.27476,6.76181,6.76181,0,0,0-2.355.339,5.65258,5.65258,0,0,0-3.44248,3.72742.36653.36653,0,0,0,.16293.40038c.20881.14955.41237.31923.63176.45247a1.97089,1.97089,0,0,0,.61711.1683q.52321.1104,1.04774.21436,1.93239.38288,3.88084.67784,3.94261.59685,7.92782.84084a88.41849,88.41849,0,0,0,24.809-2.01075.35782.35782,0,0,0,.15645-.59256C427.75822,294.58063,424.05328,291.52775,419.66731,289.91451Z" transform="translate(-176.58458 -155.67528)" fill="#f0f0f0"/><polygon points="447.688 253.763 454.108 248.889 457.238 252.018 446.778 259.176 447.688 253.763" fill="#ccc"/><path d="M618.28407,422.86075H596.32121l.77029-2.49587h0c4.77418-1.72828,2.09252-5.44312,6.63386-7.7138,11.10787-5.55393,15.40818-22.12745,13.78163-28.679l7.27922-.30778S634.83886,412.21229,618.28407,422.86075Z" transform="translate(-176.58458 -155.67528)" fill="#ccc"/><path d="M637.03405,411.1284a3.69159,3.69159,0,0,1-4.77026.08924l-.01427-.01172-.00049-.01836a3.53692,3.53692,0,0,0-.14181-.90272,2.52653,2.52653,0,0,1-.09174.62484l-.0184.06852-.04934-.05093c-.0426-.04394-.08384-.08857-.12257-.1326a3.72284,3.72284,0,0,1-.567-.8586,10.85245,10.85245,0,0,0-3.01116-3.75323,5.2681,5.2681,0,0,1-.6317-.60784,5.20785,5.20785,0,0,1,6.5398-7.93418l.03254.019-.01689.03368a2.71274,2.71274,0,0,1-.484.69818,3.53766,3.53766,0,0,0,.74545-.53856l.02365-.02231.0268.01848a5.23025,5.23025,0,0,1,.95236.84773l.03036.03481a2.32488,2.32488,0,0,0,1.72154.79444,3.69042,3.69042,0,0,1,3.57354,4.32359l-.00418.02439-.02371.00718a3.16674,3.16674,0,0,1-1.28977.16093,3.598,3.598,0,0,0,1.14882.28774l.05118.00406-.01624.04873a3.68809,3.68809,0,0,1-1.0644,1.60483l-.014.01226-.01488.013a3.624,3.624,0,0,0-1.252,2.51545A3.71864,3.71864,0,0,1,637.03405,411.1284Z" transform="translate(-176.58458 -155.67528)" fill="#ccc"/><path d="M637.70589,409.942a3.68035,3.68035,0,0,1-.0415.39683,3.73092,3.73092,0,0,0,.5998-1.8484c.00489-.10078.01547-.20116.02966-.3011A3.50143,3.50143,0,0,0,637.70589,409.942Z" transform="translate(-176.58458 -155.67528)" opacity="0.15"/><path d="M638.8674,405.45593a3.5927,3.5927,0,0,0,.918.25957,3.69413,3.69413,0,0,0,.33638-.41043A3.13016,3.13016,0,0,1,638.8674,405.45593Z" transform="translate(-176.58458 -155.67528)" opacity="0.15"/><path d="M640.2203,404.24387a3.71294,3.71294,0,0,1-.02627.95769,3.66962,3.66962,0,0,0,.41541-.85667l.01625-.04874-.05118-.00406A3.56709,3.56709,0,0,1,640.2203,404.24387Z" transform="translate(-176.58458 -155.67528)" opacity="0.15"/><path d="M639.87878,400.74084a3.69912,3.69912,0,0,0-2.709-1.25258,2.32485,2.32485,0,0,1-1.72154-.79444l-.03036-.0348a5.22992,5.22992,0,0,0-.95236-.84773l-.0268-.01848-.02365.0223a3.53806,3.53806,0,0,1-.74545.53857,2.71307,2.71307,0,0,0,.484-.69819l.01688-.03368-.03253-.019a5.204,5.204,0,0,0-7.71013,3.369,5.20492,5.20492,0,0,1,7.15183-1.91746l.03254.019-.01689.03368a2.71289,2.71289,0,0,1-.484.69819,3.53767,3.53767,0,0,0,.74546-.53857l.02364-.0223.0268.01848a5.22992,5.22992,0,0,1,.95236.84773l.03036.0348a2.32485,2.32485,0,0,0,1.72155.79444,3.69109,3.69109,0,0,1,3.56976,3.03358,4.47515,4.47515,0,0,0,.53417-.13l.02371-.00718.0042-.02438A3.67624,3.67624,0,0,0,639.87878,400.74084Z" transform="translate(-176.58458 -155.67528)" opacity="0.15"/><path d="M647.64932,385.54352a11.88658,11.88658,0,0,1-9.92852,11.72307l-.05871.00958-.04542-.03786a11.38863,11.38863,0,0,0-2.4841-1.57685,8.13544,8.13544,0,0,1,1.31559,1.55059l.12654.19019-.228.011c-.19684.00958-.39244.01437-.58124.01437a11.98681,11.98681,0,0,1-3.28165-.455,34.94388,34.94388,0,0,0-15.47779-.70129,16.965,16.965,0,0,1-2.813.23469,16.7688,16.7688,0,0,1-5.2755-32.68417l.11526-.03816.0455.11248a8.73469,8.73469,0,0,1,.65872,2.655,11.39135,11.39135,0,0,0,.28313-2.94761l-.00363-.1046.10166-.02549a16.83975,16.83975,0,0,1,4.07486-.49982l.14871.00062a7.48591,7.48591,0,0,0,5.58173-2.47282,11.88285,11.88285,0,0,1,18.05274.55451l.05006.062-.03307.07261a10.19684,10.19684,0,0,1-2.35369,3.46056,11.58475,11.58475,0,0,0,3.13872-2.16567l.11866-.1151.08328.14291a11.875,11.875,0,0,1,1.61656,5.98622l-.00015.05994-.00016.06366a11.66888,11.66888,0,0,0,3.41931,8.37622A11.97374,11.97374,0,0,1,647.64932,385.54352Z" transform="translate(-176.58458 -155.67528)" fill="#ccc"/><g opacity="0.15"><path d="M633.12054,357.45913a8.39482,8.39482,0,0,1-1.49732,1.83685,11.555,11.555,0,0,0,2.33948-1.4622Q633.5492,357.63008,633.12054,357.45913Z" transform="translate(-176.58458 -155.67528)"/><path d="M639.99944,371.64417a11.93154,11.93154,0,0,1,1.7088,2.08174,12.14681,12.14681,0,0,1-1.11182-5.10293l.00015-.06365.00015-.06a11.875,11.875,0,0,0-1.61655-5.98622l-.08328-.14291-.11867.1151a11.61116,11.61116,0,0,1-2.16747,1.65045A11.57475,11.57475,0,0,0,639.99944,371.64417Z" transform="translate(-176.58458 -155.67528)"/><path d="M636.58044,363.14434l-.00015.06-.00015.06365c0,.11665.00211.233.00537.34919a12.37643,12.37643,0,0,0,1.40769-2.42667l.03306-.07262-.05006-.062a11.97948,11.97948,0,0,0-2.14988-2.07928A11.90176,11.90176,0,0,1,636.58044,363.14434Z" transform="translate(-176.58458 -155.67528)"/><path d="M644.01572,376.9992a10.74465,10.74465,0,0,1-1.51464-1.84277,11.872,11.872,0,0,1-8.79655,16.75512l-.05871.00958-.04542-.03785a11.38921,11.38921,0,0,0-2.48411-1.57686,8.13575,8.13575,0,0,1,1.31559,1.55059l.12654.19019-.228.011c-.19684.00958-.39244.01437-.58124.01437a11.98692,11.98692,0,0,1-3.28165-.455,34.94388,34.94388,0,0,0-15.47779-.70129,16.96489,16.96489,0,0,1-2.813.23469,16.69222,16.69222,0,0,1-11.137-4.24705A16.78376,16.78376,0,0,0,614.193,396.506a16.96489,16.96489,0,0,0,2.813-.23469,34.94388,34.94388,0,0,1,15.47779.70129,11.98687,11.98687,0,0,0,3.28165.455c.1888,0,.38439-.00479.58124-.01437l.228-.011-.12654-.19019a8.13544,8.13544,0,0,0-1.31559-1.55059,11.3891,11.3891,0,0,1,2.4841,1.57685l.04543.03786.05871-.00958a11.87771,11.87771,0,0,0,6.29491-20.26739Z" transform="translate(-176.58458 -155.67528)"/></g><polygon points="231.808 247.342 223.107 240.736 218.866 244.977 233.04 254.677 231.808 247.342" fill="#ccc"/><path d="M416.50734,421.20627h29.76323l-1.04388-3.3823h0c-6.46979-2.34211-2.8357-7.37632-8.99-10.45345-15.053-7.52648-20.88058-29.98628-18.67634-38.8647l-9.86452-.4171S394.07292,406.77589,416.50734,421.20627Z" transform="translate(-176.58458 -155.67528)" fill="#ccc"/><path d="M389.40789,401.78375a4.91108,4.91108,0,0,0-1.69663-3.40883l-.02016-.01765-.019-.01661a4.99782,4.99782,0,0,1-1.44242-2.17481l-.022-.066.06936-.0055a4.87558,4.87558,0,0,0,1.55684-.38994,4.29149,4.29149,0,0,1-1.74784-.21808l-.03214-.00973-.00567-.03305a5.00113,5.00113,0,0,1,4.84273-5.85917,3.15058,3.15058,0,0,0,2.333-1.07659l.04114-.04717a7.088,7.088,0,0,1,1.2906-1.14881l.03632-.025.03205.03022a4.79442,4.79442,0,0,0,1.0102.72985,3.6762,3.6762,0,0,1-.65593-.94616l-.0229-.04564.0441-.02582a7.05749,7.05749,0,0,1,8.86249,10.75211,7.14086,7.14086,0,0,1-.85606.82372,14.70694,14.70694,0,0,0-4.08061,5.08623,5.045,5.045,0,0,1-.76838,1.16355c-.05248.05966-.10836.12015-.1661.17969l-.06685.069-.02494-.09286a3.42412,3.42412,0,0,1-.12433-.84676,4.79349,4.79349,0,0,0-.19216,1.22333l-.00067.02488-.01934.01589a4.999,4.999,0,0,1-8.15466-3.64423Z" transform="translate(-176.58458 -155.67528)" fill="#ccc"/><path d="M390.18762,403.69929a4.98825,4.98825,0,0,0,.05624.53776,5.05593,5.05593,0,0,1-.81282-2.50487c-.00663-.13657-.021-.27261-.0402-.408A4.74494,4.74494,0,0,1,390.18762,403.69929Z" transform="translate(-176.58458 -155.67528)" opacity="0.15"/><path d="M388.61359,397.61992a4.86829,4.86829,0,0,1-1.24409.35176,5.00812,5.00812,0,0,1-.45586-.55619A4.24189,4.24189,0,0,0,388.61359,397.61992Z" transform="translate(-176.58458 -155.67528)" opacity="0.15"/><path d="M386.78019,395.97739a5.03156,5.03156,0,0,0,.03559,1.29783,4.97416,4.97416,0,0,1-.563-1.16094l-.022-.066.06936-.00551A4.83309,4.83309,0,0,0,386.78019,395.97739Z" transform="translate(-176.58458 -155.67528)" opacity="0.15"/><path d="M387.243,391.23021a5.01291,5.01291,0,0,1,3.67109-1.69744,3.15061,3.15061,0,0,0,2.333-1.0766l.04113-.04716a7.08773,7.08773,0,0,1,1.29061-1.14882l.03631-.025.03205.03022a4.79408,4.79408,0,0,0,1.01021.72984,3.6765,3.6765,0,0,1-.65595-.94615l-.02288-.04564.04409-.02582a7.05224,7.05224,0,0,1,10.44847,4.56559,7.05355,7.05355,0,0,0-9.69189-2.59847l-.04409.02581.02289.04564a3.67632,3.67632,0,0,0,.656.94616,4.79455,4.79455,0,0,1-1.01022-.72985l-.032-.03022-.03632.025a7.08765,7.08765,0,0,0-1.2906,1.14881l-.04114.04717a3.15058,3.15058,0,0,1-2.333,1.07659,5.002,5.002,0,0,0-4.83761,4.111,6.06188,6.06188,0,0,1-.72389-.17616l-.03214-.00973-.00569-.033A4.98193,4.98193,0,0,1,387.243,391.23021Z" transform="translate(-176.58458 -155.67528)" opacity="0.15"/><path d="M381.63678,359.05645a15.81323,15.81323,0,0,0,4.63372-11.35114c0-.02868,0-.05758-.00021-.08626l-.00021-.08124a16.09244,16.09244,0,0,1,2.1907-8.11229l.11286-.19367.1608.156a15.69884,15.69884,0,0,0,4.25348,2.93483,13.81851,13.81851,0,0,1-3.18964-4.68961l-.04481-.09841.06784-.084a16.10318,16.10318,0,0,1,24.46439-.75145,10.14455,10.14455,0,0,0,7.56414,3.35107l.20153-.00084a22.82067,22.82067,0,0,1,5.52209.67734l.13777.03454-.00492.14175a15.437,15.437,0,0,0,.38368,3.99448,11.83719,11.83719,0,0,1,.89268-3.59792l.06166-.15243.1562.05172a22.72444,22.72444,0,0,1-7.14916,44.29234,22.98963,22.98963,0,0,1-3.812-.31805,47.35465,47.35465,0,0,0-20.97491.95036,16.24383,16.24383,0,0,1-4.44716.61662c-.25586,0-.52093-.00649-.78767-.01947l-.309-.01487.17147-.25774a11.02584,11.02584,0,0,1,1.78285-2.1013,15.4335,15.4335,0,0,0-3.36636,2.13689l-.06156.0513-.07956-.013a16.09622,16.09622,0,0,1-8.53063-27.46559Z" transform="translate(-176.58458 -155.67528)" fill="#ccc"/><g opacity="0.15"><path d="M396.40151,332.5765a11.37661,11.37661,0,0,0,2.02911,2.48922,15.65949,15.65949,0,0,1-3.17038-1.98152Q395.82061,332.80816,396.40151,332.5765Z" transform="translate(-176.58458 -155.67528)"/><path d="M387.07948,351.79951a16.16988,16.16988,0,0,0-2.31569,2.8211,16.461,16.461,0,0,0,1.5067-6.9153c0-.02868,0-.05758-.00021-.08626l-.0002-.08124a16.09253,16.09253,0,0,1,2.19069-8.11229l.11286-.19367.16081.156a15.73509,15.73509,0,0,0,2.93727,2.23663A15.68555,15.68555,0,0,1,387.07948,351.79951Z" transform="translate(-176.58458 -155.67528)"/><path d="M391.71278,340.28087l.00021.08124.00021.08626c0,.15808-.00287.31576-.00728.4732a16.772,16.772,0,0,1-1.90765-3.28852l-.0448-.09841.06783-.084a16.23534,16.23534,0,0,1,2.91344-2.81776A16.129,16.129,0,0,0,391.71278,340.28087Z" transform="translate(-176.58458 -155.67528)"/><path d="M381.63678,359.05645a14.56088,14.56088,0,0,0,2.05259-2.49725,16.08846,16.08846,0,0,0,11.92074,22.70589l.07957.013.06155-.0513a15.43421,15.43421,0,0,1,3.36636-2.13689,11.02533,11.02533,0,0,0-1.78283,2.10129l-.17149.25775.309.01486c.26676.013.53183.01948.78768.01948a16.24383,16.24383,0,0,0,4.44716-.61662,47.35471,47.35471,0,0,1,20.97492-.95036,22.99039,22.99039,0,0,0,3.812.318,22.62065,22.62065,0,0,0,15.09243-5.75543,22.74471,22.74471,0,0,1-20.53514,13.01238,22.99057,22.99057,0,0,1-3.812-.318,47.35466,47.35466,0,0,0-20.97491.95035,16.244,16.244,0,0,1-4.44717.61662c-.25585,0-.52091-.00649-.78767-.01948l-.309-.01486.17149-.25774a11.02541,11.02541,0,0,1,1.78283-2.1013,15.43482,15.43482,0,0,0-3.36636,2.13689l-.06155.0513-.07956-.013a16.09622,16.09622,0,0,1-8.53063-27.46559Z" transform="translate(-176.58458 -155.67528)"/></g><circle cx="308.92605" cy="158.47937" r="1.18177" fill="#fff"/><circle cx="397.32237" cy="186.84182" r="0.70906" fill="#fff"/><circle cx="411.03088" cy="154.93406" r="0.70906" fill="#fff"/><circle cx="284.10891" cy="133.66222" r="0.70906" fill="#ccc"/><circle cx="277.01829" cy="162.26103" r="0.70906" fill="#fff"/><circle cx="242.51064" cy="154.93406" r="0.70906" fill="#ccc"/><circle cx="364.70554" cy="160.84291" r="0.70906" fill="#fff"/><circle cx="437.26615" cy="137.91659" r="0.70906" fill="#ccc"/><path d="M585.67739,403.51176a5.1882,5.1882,0,0,1,.07926-5.37672,8.70685,8.70685,0,0,0,3.4685,4.86872c.65513.44605,1.43024.87394,1.65435,1.63416a1.94627,1.94627,0,0,1-.20294,1.42862,5.78022,5.78022,0,0,1-.897,1.17112l-.03175.11895A10.55536,10.55536,0,0,1,585.67739,403.51176Z" transform="translate(-176.58458 -155.67528)" fill="#e6e7e8"/><path d="M510.28054,364.98609a5.18818,5.18818,0,0,1,.07925-5.37671,8.707,8.707,0,0,0,3.46851,4.86872c.65513.446,1.43023.87393,1.65435,1.63415a1.94635,1.94635,0,0,1-.20294,1.42863,5.78082,5.78082,0,0,1-.897,1.17112l-.03175.11894A10.55526,10.55526,0,0,1,510.28054,364.98609Z" transform="translate(-176.58458 -155.67528)" fill="#e6e7e8"/><path d="M438.429,392.40313a5.1882,5.1882,0,0,1,.07925-5.37672,8.70694,8.70694,0,0,0,3.46851,4.86873c.65513.446,1.43024.87393,1.65435,1.63415a1.94635,1.94635,0,0,1-.20294,1.42863,5.78043,5.78043,0,0,1-.897,1.17111l-.03175.11895A10.55536,10.55536,0,0,1,438.429,392.40313Z" transform="translate(-176.58458 -155.67528)" fill="#e6e7e8"/><rect x="399.44955" y="130.82598" width="2.59989" height="139.21237" fill="#ccc"/><rect x="392.35894" y="119.481" width="17.01747" height="17.01747" rx="8.50873" fill="#ccc"/><path d="M543.54275,409.26471l-6.66923-2.9423v-2.52954l2.3768-.01336a1.76538,1.76538,0,0,0,1.66487-1.20709l1.66969-5.00906a1.76538,1.76538,0,0,0-1.67479-2.32364h-4.03657v-2.35385H541.941a1.76538,1.76538,0,0,0,1.72051-1.36986l1.14986-5.00193a1.76538,1.76538,0,0,0-1.7205-2.1609h-6.21735v-.58846a1.17692,1.17692,0,1,0-2.35384,0v.58846H492.837v-.58846a1.17692,1.17692,0,0,0-2.35385,0v.58846H485.5408a1.76538,1.76538,0,0,0-1.7205,2.1609l1.14986,5.00193a1.76538,1.76538,0,0,0,1.72051,1.36986h3.79248v2.35385h-2.76163a1.76538,1.76538,0,0,0-1.68031,2.30681l1.70421,5.28892a1.76539,1.76539,0,0,0,1.69022,1.22392l1.04751-.00588v2.26892l-5.39423,2.9423a1.76538,1.76538,0,0,0-1.76538,1.76538v0a1.76538,1.76538,0,0,0,1.76538,1.76538h5.39423v12.94615a1.17693,1.17693,0,1,0,2.35385,0V412.79548h41.68268v12.94615a1.17692,1.17692,0,1,0,2.35384,0V412.79548h6.66923a1.76538,1.76538,0,0,0,1.76538-1.76538v0A1.76538,1.76538,0,0,0,543.54275,409.26471ZM492.837,392.88587h41.68268v2.35385H492.837Zm0,13.43654v-2.28215l41.68268-.23417v2.51632Z" transform="translate(-176.58458 -155.67528)" fill="#ccc"/><path d="M639.50365,502.30976h-254.645a6.05281,6.05281,0,1,1,0-12.10561h254.645a6.05281,6.05281,0,1,1,0,12.10561Z" transform="translate(-176.58458 -155.67528)" fill="#e6e6e6"/><path d="M554.06094,529.63328H470.301a6.05309,6.05309,0,0,1,0-12.10619h83.7599a6.05309,6.05309,0,1,1,0,12.10619Z" transform="translate(-176.58458 -155.67528)" fill="#e6e6e6"/><path d="M554.06094,585.05694H470.301a6.0531,6.0531,0,0,1,0-12.10619h83.7599a6.05309,6.05309,0,1,1,0,12.10619Z" transform="translate(-176.58458 -155.67528)" fill="#e6e6e6"/><path d="M554.06094,613.4443H470.301a6.05281,6.05281,0,1,1,0-12.10561h83.7599a6.05281,6.05281,0,1,1,0,12.10561Z" transform="translate(-176.58458 -155.67528)" fill="#e6e6e6"/><path d="M601.036,556.95622H423.32572a6.05281,6.05281,0,1,1,0-12.10562H601.036a6.05281,6.05281,0,1,1,0,12.10562Z" transform="translate(-176.58458 -155.67528)" fill="#e6e6e6"/><circle cx="851.3387" cy="258.61159" r="29.72869" transform="translate(-196.30247 284.36932) rotate(-28.66318)" fill="#ffb8b8"/><path d="M848.36755,296.494l11.27166-14.48875,16.07878-.69719,1.60478,13.62689,7.967,3.67372a213.66873,213.66873,0,0,1,3.59909,92.56989l0,0h0a8.24248,8.24248,0,0,0-2.34458,8.00651l.51649,2.05911-.04779.07541a12.06184,12.06184,0,0,0-1.60133,9.00483h0l14.56475,25.88023c-30.92945,12.606-53.6034-10.90246-74.60883-41.71069l-13-45Z" transform="translate(-176.58458 -155.67528)" fill="#6c63ff"/><path d="M846.36755,222.494h19.2041c12.58985,0,22.7959,11.48194,22.7959,25.64563,9.5,9.53894,6.64893,21.4892-.88867,34.35437a149.22552,149.22552,0,0,0-39.541,10.57575l-1.79248-7.65448-3.53564,10.08081q-4.7168,2.28534-9.35352,4.99792c3.60791-16.95111,5.09278-33.86285,2.61573-47h-6.5044v-7.1181l-2.208,7.1181h-11.792V253.494A30.9998,30.9998,0,0,1,846.36755,222.494Z" transform="translate(-176.58458 -155.67528)" fill="#2f2e41"/><polygon points="637.897 224.129 634.861 193.769 675.162 134.111 676.819 135.23 636.923 194.29 639.887 223.93 637.897 224.129" fill="#2f2e41"/><circle cx="638.8918" cy="224.02945" r="3" fill="#2f2e41"/><circle cx="695.3918" cy="64.52945" r="14" fill="#2f2e41"/><path d="M841.64684,452.59855a10.02355,10.02355,0,0,1,1.79.16882l9.82441-62.19426L843.419,330.699a15.08,15.08,0,0,1,29.27393-6.94415v.00006a118.97082,118.97082,0,0,1,5.41161,36.48541l-.34326,40.83277-26.19111,62.71073a9.9971,9.9971,0,1,1-9.92334-11.1853Z" transform="translate(-176.58458 -155.67528)" fill="#ffb8b8"/><path d="M878.10876,386.16388,851.3387,387.494l-15.41556-54.37758a23.71607,23.71607,0,1,1,47.43213,0Z" transform="translate(-176.58458 -155.67528)" fill="#2f2e41"/></svg>